/* XPM */
static char *_0fa9b2dd5a74657aa521c1fbcc67de9xHgCFjmYR0cG0pw3[] = {
/* columns rows colors chars-per-pixel */
"75 75 9 1 ",
"  c #030103",
". c #020202",
"X c #040102",
"o c #050303",
"O c #030104",
"+ c #030205",
"@ c #040105",
"# c #050304",
"$ c #070206",
/* pixels */
"          O      OO                 OO O   O     O     X@O  O  XOOO   @  O ",
"O O        O      OO        O OOO   O         OO O O      @ XOOOOO.  +O  # ",
"O  O              O    O O  O    O      O  O  OO OOOO@O  @ @  O  O#O@O@ O#X",
"O@  O OO    O     O OO   O                    OO  O  OX O OO@OOX  @OX OOOO@",
"OO   OO OOO O            OOOO           O            O   OO @O OOXOO @OOOOX",
" @  XO    O OO O  OOO    O O           O        O    O     @  @ X@O@  OO@O ",
"   O        OO       O  O           O            O O    OO O @OOOOOX  @ #O ",
"XX@XX  @OOO O O     O   OO   O        O   X O O @X      @O@ O@XO@OO@@OX@OOO",
"O   O    O  OO       O   O                   O          OO  O   OOOO OOO#@ ",
"OO  O  OO    O       O  OO                              O    O   O @ OO O @",
"     O O O O                                OOO         OO         XO  OO @",
"  O       O                                 O O         O         @ O  OX@O",
" O  OO                                                              X   OOO",
"  O  O O      O                               O                      X @#OO",
"O     O    OO O                                                 O  @ X @@@O",
" O  OOO  O   O                                                  O @ OO  @OO",
"                 O                                                 OO   OOO",
"O        O     O                                O                    OOOOOO",
"O@X  O  O O   OO                                OO                  O@OO @ ",
"OO@     OO O O  O                                 O                O@X@OX@O",
" O                                                   O          O         X",
"        O                                            O          O        #O",
"        O  O                                       O                  O  OO",
"   O                                               OO OO           OOOOO OO",
"                                                                O  O  O   O",
"O                                                                     O OOO",
"                                                                  OO OO OOO",
"       O                                                          O   OOO O",
" OO                                                                    OOO@",
" O                                                                       O ",
"OO O O    O                                              O      OOOO  OOOOO",
"OO  O    O                                               O      O  O   OOX@",
"        O OO                                              O    O        O  ",
"        O     O                                                           O",
"O       O                                                         O       O",
"O      OO  O                                                    O          ",
"  OO                                                       OO O           O",
" OOOO OO   OO                                            OO   O       O@   ",
"O   O   O   O                                             OO        @ @   O",
"  O     O      O               O                                     OO  O ",
"OO@   @  OOO                                              O  O  O OOOO  @OO",
"O O  X@OO OO                                             O    OOOO   OO    ",
"O O@   OO                                               O O      O OO   @@ ",
" OOO  OO                                                OO   OO         @O ",
" OOOO @ O                                                O O       O  O  O ",
"OOOOOO O   OOO  O                                         O       OOO  O  O",
"OO   OOO  O O       O                                      O      OOOO  @O ",
"OO@OOOOO    O                                                O     OO OO   ",
"   OO @@   O O O   O  O                   O         O      O       OO @@@OO",
" OOO OXOO OOO  O                                O   O   OOOOO OO  O @@X@X@O",
" OOO O O OO OO  O                               O  O  O  OO     @ @O  O  @O",
"   OO O   O      O                         O O         OOO O    OOXO  OO@@O",
"O@       @OX O OO O                          O     O   O    O  O       @  O",
"@X  @O@  OO@ O OOO  O       O                OO     OO O  OOO  OO O@@  O   ",
"@@ @ @ @OO OOOOO O O O O                           O OOO   O  OOXO@O  O@O@X",
"X@OOX@@X  O@O@OOOO O   O                    O     OOO O OO    OO@  X  O@ O@",
"@O @@@@ OOXOOOOOO O OOO     O   O         O   O  O   OO OOOOX  O@  @XOOO@XX",
" O O OX@ @@OOOOOOOO OO O    OOO O          O    OO    O OOO O  O   O@OO#O@@",
"@#@@@ O  @ OOOO  OO OOO  O   O        O    O O  O     O O   X   O O@OO#O@ @",
"  OOO#O@  OOOX@O OOO O O O  O  O OOOOO  O @ OOO OO         O    OO# @XOO# @",
"OO@  X@X  @OOO OOOOOOOO OO  OO OOOO OOOO  O@  O    O  OOOO@ O O @#OO@XO@@@ ",
"OOOO  XO    OO   OOO  O  O OOOOOO   O     O OOO@OOO   @X  @ @@@OOXO@@@OO@##",
"@X@XO@@O OO@@OOO  O O O  OOOOO  O OOO  O  @@O  O   O @ O  XOX X@@#O#  OO#OO",
"@#OOO @O  O@XO O  OO O O OOOOOO O   OO O @ X       O  O   @O  X@OOOOOOO@O@O",
"@#OOOOO@@ @OO@OOO@@ @XOXOOOO    OO O O  OOO  XO@ X@  @XO@X@#@  @OOO@XO@#X@O",
"@@#@#OOOOOXOOOO# O  OX@@OOOO@ OO#OOOO O OOOO @ X  O@OO@O @O X X  OOOOO@O@ @",
"@ @O  OOOOO@@  O O    O @O X@O OOO O O@#OX O@O@X OOO O OO OO@OO @@O OOOO @X",
"#@oX OO@X@OX   O@O X @ @@XO@@X@OO#XXOO @  X@OOO OO@XO @ OO@XOX @XO @OO#O#@@",
"X@@@ OO@ O@@ @X@ @ @X@ O    O@XOO O@O @@O@O@X@O@@O OOO OO@#O#XX@OO@XO@@X@#@",
"@@#X@#O #OX@@ O #X  #XO X  @OOOO@OXOO# X X#O@O @ O  @X@ XX@OO@@@@ @@OOOO@@@",
"@@X@@@@ @X@# @OOOX@XO#OOO @@  O@ O#OOOOOOOO@ #OO@ O@    @@#OOO  o@X@@#O@#@o",
"#X@@XO#@  @ @XO O@@ oOO  @XOOO @O OX@@OOOO@XO  O OOO @X @OOOX@OO @@ @@OXX@O",
"@#@X@@#  X@#O@ @@OoX  O  @@  @ O   O @ OX@O O X@  O  O   OO@    @ OOX#@@@O@",
"@#@@##@@O@@X# @X@O#@ @@X @O   @    O@XO#O@O@ O@O  @OO#O#OOX@@OX#@#@#@@#@@#X",
"@@@@X@@# @#O@OX@  @ @  @ OO@ O XO@OOOOO#OOX@@ @X@OX@o@ @o@OOO OOoX@ O@#O@@@"
};
