/* XPM */
static char *SXBsZXgxMCslMjgxJTI5X3Bob3RvLXJlc2l6ZXIucnU_[] = {
/* columns rows colors chars-per-pixel */
"70 70 159 2 ",
"   c #000000",
".  c #0B0503",
"X  c #0E0905",
"o  c #0F0B08",
"O  c #110603",
"+  c #130B06",
"@  c #1B0E06",
"#  c #130D08",
"$  c #190E0A",
"%  c #171107",
"&  c #1A1107",
"*  c #171108",
"=  c #1D130A",
"-  c #1F180E",
";  c gray11",
":  c #250F07",
">  c #231107",
",  c #291207",
"<  c #241209",
"1  c #2B150A",
"2  c #251B0E",
"3  c #2B1C0E",
"4  c #31170B",
"5  c #341B0D",
"6  c #3B1D0C",
"7  c #231710",
"8  c #261B12",
"9  c #2B1D12",
"0  c #201E1C",
"q  c #331D12",
"w  c #3A1F11",
"e  c #2E200E",
"r  c #33230E",
"t  c #3E210E",
"y  c #2D2112",
"u  c #2F2119",
"i  c #352315",
"p  c #3C2212",
"a  c #362815",
"s  c #3A2A14",
"d  c #35291A",
"f  c #3C2B1A",
"g  c #282726",
"h  c #2A2929",
"j  c #342E26",
"k  c #3E3122",
"l  c #353433",
"z  c #3D3B39",
"x  c #46230E",
"c  c #49240E",
"v  c #442413",
"b  c #4B2612",
"n  c #422C13",
"m  c #4B2914",
"M  c #452618",
"N  c #452B1C",
"B  c #4D2D1B",
"V  c #562E14",
"C  c #582F15",
"Z  c #532F19",
"A  c #443113",
"S  c #493414",
"D  c #4E3816",
"F  c #45331B",
"G  c #4A351A",
"H  c #4D391C",
"J  c #563017",
"K  c #5A3016",
"L  c #553B16",
"P  c #56321B",
"I  c #5D3319",
"U  c #543C1C",
"Y  c #5B3B1E",
"T  c #60361D",
"R  c #62391F",
"E  c #442F21",
"W  c #463620",
"Q  c #4C3C24",
"!  c #473D2E",
"~  c #4E3E29",
"^  c #553523",
"/  c #5A3621",
"(  c #533F21",
")  c #5D3A24",
"_  c #543629",
"`  c #5F3E29",
"'  c #643B22",
"]  c #683E24",
"[  c #623F29",
"{  c #57401E",
"}  c #5C421E",
"|  c #6A4C16",
" . c #62461C",
".. c #664A1C",
"X. c #6B4C1C",
"o. c #6F511E",
"O. c #554122",
"+. c #5B4322",
"@. c #5C4629",
"#. c #5A4A2E",
"$. c #4B433A",
"%. c #5F4130",
"&. c #5F4C30",
"*. c #614621",
"=. c #654A24",
"-. c #6C4F24",
";. c #65412A",
":. c #6D442B",
">. c #6C442C",
",. c #6E442C",
"<. c #624929",
"1. c #664E2C",
"2. c #684D28",
"3. c #684E29",
"4. c #6B4E29",
"5. c #6A4F2A",
"6. c #704F20",
"7. c #6F5020",
"8. c #6E5024",
"9. c #6E5026",
"0. c #67512B",
"q. c #6E5229",
"w. c #6E532A",
"e. c #6B522C",
"r. c #6D512C",
"t. c #6F542D",
"y. c #715121",
"u. c #725223",
"i. c #735325",
"p. c #735625",
"a. c #755425",
"s. c #755527",
"d. c #765426",
"f. c #765527",
"g. c #765627",
"h. c #775827",
"j. c #705329",
"k. c #735429",
"l. c #755529",
"z. c #70552D",
"x. c #73552D",
"c. c #73562D",
"v. c #71562F",
"b. c #785729",
"n. c #7A5A2C",
"m. c #654333",
"M. c #684530",
"N. c #6B4430",
"B. c #684733",
"V. c #6E4430",
"C. c #674835",
"Z. c #6B5330",
"A. c #745C37",
"S. c #7D5E30",
"D. c #7F6132",
"F. c #7C6138",
"G. c #4B4B4A",
"H. c #534D42",
"J. c #806233",
/* pixels */
"                                                                                                                                            ",
"                                                                                                                                            ",
"                        . X q _ m.C.C.:.,.>.>.>.:.>.,.,.:.:.:.:.,.,.:.,.,.,.N.V.>.V.>.:.,.,.:.:.:.:.,.,.:.:.:.:.,.,.;.B.C..                 ",
"                    * i :.>.,.,.:.:.:.,.,.,.>.>.:.,.,.,.:.:.:.:.,.,.:.:.,.,.,.,.:.:.:.:.,.,.:.:.:.,.,.,.:.:.:.:.,.,.:.>.,./ X               ",
"                  @.;.V.:.:.:.:.:.:.,.:.:.:.,.,.:.:.:.:.:.:.:.:.:.:.:.:.,.:.:.,.:.:.:.:.,.:.,.,.:.:.:.:.:.,.:.,.:.:.:.:.>.:.;.f             ",
"            - i ,.,.,.V.:.:.:.:.,.,.:.:.:.,.,.,.:.:.:.:.:.:.:.:.:.:.:.:.,.:.:.:.:.:.:.:.:.:.>.,.,.:.:.:.:.:.:.,.:.:.:.:.,.:.>.:.f           ",
"          _ ;.,.,.,.:.:.:.:.:.:.:.,.,.,.:.:.,.,.:.>.:.:.:.:.:.:.:.:.:.:.:.:.:.,.:.:.:.:.:.:.,.,.:.:.,.:.:.:.:.,.:.:.,.,.,.,.>.>.,.^ 7       ",
"      9 ^ ^ ^ _ ^ _ ^ ^ _ ^ ^ ^ ^ ^ ^ ^ ^ P ^ ^ P ^ ^ ^ ^ ^ ^ ^ ^ ^ ^ ^ ^ ^ ^ U ^ ^ U ^ ^ P ^ ^ ^ ^ ^ ^ ^ ^ P _ ^ P ^ ^ ^ ^ P _ ^ ^ ^ .     ",
"    ~ { { O.U { ( ( O.U O.O.U O.O.U O.O.U O.U O.O.{ O.{ O.U O.U U O.( ( O.U O.O.{ O.( ( U O.O.O.O.O.O.U O.O.( ( O.y     X O.{ Q U O.O.O.a   ",
"    e.a.a.l.a.d.a.a.a.l.a.l.k.h.a.l.a.l.l.p.a.l.l.l.l.h.l.l.a.l.k.p.l.p.a.b.a.l.a.h.a.l.l.h.a.a.a.l.a.a.a.l.a.8.F H a.a   w.h.a.a.l.a.a.H   ",
"    =.y.y.8.X.y.6.-.6.X.y.X.8.o.X.y.y.y.p.a.a.l.a.a.l.a.a.h.a.a.l.a.a.l.h.a.l.a.a.l.l.a.a.l.a.l.a.l.l.h.l.a.U s +.l.l.}   & 8.p.l.d.b.a.G   ",
"    +.X...} +...X.X.X.X.X.| X.X.X.X.X.X.| X.X.X.X.X.X.X.X.X.X.X.X.X.X.X.X.X.X.X.X.X.X.X.X.X.X.X.X.X.y.a.l.+ F d.h.k.a.8.@.  F a.a.h.a.h.H   ",
"    { ..X.; l ..X.f @ <.=.} =.U *.S A 3 U X.X.y.X.X.y.X.y.8.6.y.y.a.l.a.h.l.l.l.h.l.a.h.l.h.a.h.l.h.l.p.s w.h.l.a.y.X.X...&   i i.l.a.l.G   ",
"    +.a.y.F W i.a.i...j.a.a.i.=.i.*.+.} 5.l.a.a.l.h.a.l.d.l.a.l.a.l.l.a.a.h.a.l.l.h.h.l.a.l.l.a.a.h.U = =.h.l.a.y.X.X.X.X.5.&   H a.l.a.H   ",
"    O.a.a.a.d.a.l.a.b.a.a.a.k.a.a.l.a.l.a.l.l.h.a.l.l.b.l.l.l.l.l.l.h.l.h.l.h.l.a.h.l.a.a.h.l.l.l.H i i.l.a.a.X.X.X.X.y.l.l.a.+   X X X     ",
"    = 3 p G U @.=.=.4.4.0.0.w.w.w.t.w.w.z.z.x.z.A.c.c.c.v.x.z.z.l.z.z.l.=.*.Y G N n r 3 3 3 3 e 9 ( w.a.a.y.X.X.X.X.y.a.h.a.l.}   Z V Z     ",
"      < b x v v v v v v v M M M M M M v v v w w 6 6 4 1 < < + 1 4 q i p p v b v v v v M v b x 9 +.l.a.l.y.X.X.X.X.a.d.b.a.d.b.f & P B P     ",
"      i I I I T ' ' T T I / [ I Z V V C Z C V V b V V V I V %.I I ' ] R I K J V V K J ) I m 1 L a.l.p.y.X.X.X.X.d.a.h.d.l.l.F . 1 r   7     ",
"      i I I I T ' ' T I I / ] I I I I ' ' ' T I C C C I I I ;.I I ' ] R I I V V V C m N V < =.h.a.y.X.X.X.X.a.a.d.l.d.l.p.H   f s | r       ",
"      i I I I T ' ' T I I / [ T I I I T ' ' T I C C C I I P ,.I I ' ] R I I V C V V m 9 y t.l.l.y.X.X.X.X.a.a.h.b.a.b.a.w.X u i X.X.X.e     ",
"      i I K T T ' ' T I I / ] I I K I T ' ' I I C V C I I ^ :.I I ' ] I I I V V C V N s k.l.a.X.X.X.X.X.a.a.b.b.a.h.a.a.- 2 A X.X.X.o.l.a   ",
"      i T I K I ' ' ' I T ) [ I I I I T ' ' I I V V C I I B ] I I ' ] ' I K V C V 1 e a.a.l.X.X.X.X.a.l.l.h.n.d.a.l.y.3 = s X.X.X.l.a.a.+.# ",
"      i I I T T ' ' T I I / ] I I I I T ' T I I V C C I I t ] I K ' ' I I V V V 9 } a.l.X.X.X.X.X.y.l.a.n.h.l.l.l.y. .2 ..X.X.X.a.a.p.i     ",
"      w I I : I ' ' I I Z I [ I I I I T ' ' I I C C C I I , ' I I ' ' I I K B X l.h.a.X.X.X.X.y.a.a.l.D.h.a.h.a.X.X.X.X.X.X.a.a.l.a.i       ",
"      i I T p I ' ' I I C / [ I I I I T ] T K C C V C K I 1 ' I I ] ' I I 1 r w.a.o.X.X.X.X.X.h.l.n.n.l.a.a.a.X.X.X.X.X.X.6.l.a.5.d . <     ",
"      i T I , I ' ' I I C I _ T I K I T R T T C C C C T I p Y I I R R I < &.p.a.6.X.X.X.X.y.a.n.J.h.a.h.h.y.X.X.X.X.X.y.a.d.l. ..   6 c     ",
"      i I I + I ' ' I I C I 1 I I I I T ] K K C C C C T I ^ I I I R J i +.l.i...X.X.X.X.a.l.n.D.h.a.h.a.X.#.f  .X.X.X.l.a.j.^   X v v x     ",
"      i I I $ / T ' I I C C $ I I I K T R T K C C C C C I ` I I I N &  .l.a.X.X.X.X.y.h.a.n.a.b.l.a.l.X.X.l $. .X.a.h.a.l.r . . x x c b     ",
"      i ' I @ 5 ' ' I C C I $ I I I I T R I C C V C T C T ] I I v s i.d.y.X.X.X.X.y.l.J.S.n.l.a.d.y.X.X.X.X...X.h.l.l.=..   . v x x V I     ",
"      i I I w I T ' I V C K $ ' I I I T R I C C V V C C I ] P < G l.a.X.X.X.X.X.a.a.n.n.n.l.a.a.y.X.X.X.X.X.o.a.a.l.O.&   1 x x x V I I     ",
"      q I I ' I T ' I C C I @ ' I I I T R I C C C C C T I ` . U j.i.X.X.X.X.X.a.n.J.n.d.a.l.a.X.X.X.X.X.X.l.a.k.l.2     p x x b I I I I     ",
"      i I I I I T ' I C C C @ ' I I I T ] T C C V V T C w i z.a.y.X.X.X.X.y.n.n.J.n.b.d.h.y.X.X.X.X.X.X.a.a.l.k.y   > x x x V I I I I I     ",
"      q T K T K R T I V V I $ T I I I T R I K V V V I @ & p.a.X.X.X.X.X.a.a.J.J.a.l.a.a.d.X.X.X.X.X.y.l.l.a.U .   1 x x x R ] I I I T I     ",
"      6 K T K K ' ' I V V I $ ' I I I T T I K V V b i ( l.a.X.X.X.X.X.a.D.J.S.a.l.a.b.X.X.X.X.X.X.X.a.b.k.H   + 5 x v c R ' ' I C I I I     ",
"      M T K K T T ' I V C I $ R I I I T I I K V 5 X =.a.y.X.X.X.X.8.b.D.J.l.h.a.a.a.X.X.X.X.X.X.a.a.l.d.f   O x v x P I I ' ' I I I I I     ",
"    . V I I T K T ' I V V I < ' I I I T I I K p 2 p.a.X.X.X.X.X.a.n.J.D.h.k.} p.y.X.X.X.X.X.X.i.l.a.=.O . O x c x / I I R ' ' I I I I I     ",
"    . ^ T T C T ' ' I C K I 9 T I I I T Y b < Q j.d.X.X.X.X.X.h.S.J.n.n.a.H.l =. .X.X.X.X.y.a.l.d.3 +   q x c b V ^ I T T R ] T I I I I     ",
"    . ) C I T C T ' I V V P N T I I K T P . G l.X.X.X.X.X.a.b.J.J.n.h.a.+.G.h  .X.X.| X.a.l.l.p.&     x x c b C m J K I I R R I I I I I     ",
"    . ` I I I I T T I V V I [ R I I I 5 a 5.l.X.X.X.X.X.a.J.J.J.n.l.a.l.y.r D X.X.X.y.a.l.h.k.2   < 6 x b V C V b N I I T R ] I I I I I     ",
"    . [ I I I T R T I C V P :.T I I X 3 a.y.X.X.X.X.l.S.n.J.J.a.l.h.l.y.X.X.X.X.| a.l.h.a.z.+   5 x b x Y R C V m N I I I ] R I I I I I     ",
"    . [ I I I I Y I I C V I ;.I x y G d.y.X.X.X.a.l.n.J.J.J.l.b.h.a.X.X.X.X.X.X.a.b.a.a.U = + , c c V ] T I K V m N I I I ' ] I I I I I     ",
"      ' I I I I ' I I C V ^ ;.1 X =.d.X.X.X.-.i.n.J.J.J.n.a.a.a.a.X.X.X.X.X.X.a.l.a.b.s   @ v x c R R R T I K V Z E I I I ' ' I I I I I     ",
"    . ' I I I I T I I V V Z E < a.a...X.X.y.d.n.J.J.J.h.l.h.h.a.X.X.X.X.X.y.l.i.l.l.F   + x c c R ] ,.R T T C V Z / I I I ' ' I I I I I     ",
"    . ' I I I I T I I V t O Q a.X.X.X.y.a.d.J.J.J.n.a.b.a.l.X.X.| X.X.X.a.d.d.l.=.y   , x x V I ' ' R R T K C V J [ I I I ' ' I I I I I     ",
"    . ' I I I I Y I I N X } a.X.X...5.p.n.J.J.J.n.a.d.a.l.X.X.X.X.X.X.a.b.a.a.w.    5 1 c V I I R ' ' R I I C V Y ;.I I I ' ' I I I I I     ",
"      ' I I C I I J > a 8.y.X.X.y.#.g ! J.J.J.n.b.a.l.y.X.X.X.X.X.y.d.h.a.h.Y . , x 5 p I I I T ' ] ' Y I K C C / ,.K I I ' ' b t I I I     ",
"    . ' I I T I I . a a.i...X.d.d.~ G.d J.n.l.h.a.l.y.X.X.X.X.X.a.l.a.l.l.-.  p x c 6 N I I I T ' ' ' I I V V K / ,.I I I ' ' b v I I I     ",
"    . R I I I 6 8 U a.y.X.y.l.n.J.J.S.J.J.h.b.a.a.y.X.X.X.X.X.d.a.l.l.a.+.# 4 v c J m N I I I I ] ' R I K V V I / >.I I K ' ' J m I I I     ",
"    . ' I I < + 8.k.X.y.p.h.S.D.J.J.J.d.b.h.a.a.X.X.X.| X.y.l.l.l.a.l.F 2 x x c V I b N K T C T ' ' ] I C V V T T ,.I I I ' Y I P I I P     ",
"    . ' m i 1 a.y.X.y.k.b.J.J.J.J.J.a.l.a.a.a.X.X.X.X.X.d.d.a.h.a.-.& @ x c b V C I m N T C T T ' ' R I T V V K Y ,.I I I ' R P P I I I     ",
"    . N X +.a.o.8.l.n.D.D.J.J.J.n.l.l.h.b.y.X.X.X.X.X.a.l.a.k.l.z.9 6 c c b V C C I b N K T T T ' ' ] I I K V I I >.I I I R I B v I I P     ",
"      . 5.p.X.l.a.n.H . F.J.J.n.h.a.h.l.X.X.X.X.X.y.d.a.l.a.a.U . x c c K K C V I I b B K K C T ' ] R I I K C K / :.I I I ;.I b t I I I     ",
"    f 8.8.y.a.n.( N 7 t.J.D.n.l.a.a.a.X.X.X.X.X.y.l.h.a.l.l.p 1 x x V I K V V V V I m N I I I T ] R ' I I I V K Y ,.I I I R I m t I I P     ",
"  F l.y.l.a.S.+ i + A.J.n.h.h.a.a.8.X.X.X.X.X.a.l.d.a.k.0.8 t x x K I K K C V C C I M N I I I T ' ] ' I I I V I ^ ,.I I K ] Y m i K I P     ",
"  y 8.h.d.@.2 N i D.J.n.l.l.l.l.H O.X.X.X.y.b.h.l.a.l.U + 5 x c I I I I K V V V K I m N I I I T ' ] R I I I K K N :.I I K ] I B i I I P     ",
"    - F.8 p = t.S.D.a.h.h.a.a.y.z z  .X.y.a.a.b.b.a.s 5 v x Z I I I I I K V V V K I m N I I I Y ] R I I I I V I 6 :.I I I ] I B p I I I     ",
"      # ^ p w.J.S.l.b.a.l.a.X.X.O.n X.a.b.h.l.a.=.. , x v _ ' I I I I I C C C C C I m B I I I T ' ' Y I I I C C p ,.I I I ] I I I I I Z     ",
"    . [ q 5.J.n.l.l.a.h.d.X.X.X...y.l.d.a.a.a.3 8 4 x m V @.' I I I I I C C V V V I Z / I I I T ' ' T I I I C C p ,.I I I R T I I I I P     ",
"    . s t.J.l.a.l.a.l.X.X.X.X.X.h.a.l.a.b.4.8 O x c b I I ;.] I K I I C V V V V V I I / I C K I ' ' I I I V C Z 5 C x x x x x x x x x x     ",
"      ' 5 +.b.l.a.b.X.X.X.X.X.y.a.h.l.l.S < q x x x m Z V E Z v t 4 , : > : , : < < < < : < < > : : > < < : < < @ > : > > < 5 r y y 2 q #   ",
"      v b q  .a.y.X.X.X.X.y.l.d.a.a.h.. 4 x v 1 . .   . X , H 0.e.8.3.8.5.8.5.8.5.6.8.-.y.-.-.-.5.-.-.6.-.6.-.-.-.6.-.-.-.-.i.l.l.l.p.j.G   ",
"    C.z.x.5.a U X.X.X.X.-.a.d.h.w.F 9 y H w.x.l.a.a.l.i.h.a.a.l.l.a.a.a.y.a.i.p.a.y.i.y.i.y.a.y.6.y.y.i.6.y.a.6.i.y.y.6.y.y.6.=.j 0  .y.S   ",
"    0.k.l.l.l.*...X.y.a.l.l.a.j.= e k.a.l.a.d.d.a.l.l.a.l.l.a.h.l.l.a.l.l.a.i.a.a.i.a.y.a.6.X.X.X.X.X.X.X.X.X.X.X.X.X.X.X.X.X.L l G.S X.A   ",
"    o y s F 8.8.U X.b.a.l.l.G X 8 S.J.J.J.J.J.J.J.J.J.J.J.D.J.n.n.n.h.l.a.l.a.l.a.a.a.a.a.d.d.d.d.l.a.i.a.d.d.l.l.a.a.a.y.6.6.X.} U X.X.A   ",
"    F l.p.p.l.l.{ S a.j. .y + =.n.n.n.a.n.n.z.n.n.n.z.n.n.n.l.a.i.a.a.h.a.a.k.p.l.h.p.l.l.a.h.l.h.a.l.h.a.l.a.l.a.h.l.l.k.k.z.z.z.4.U s =   ",
"    i 8.8.8.-.5.-.5.=.t.  ( 5.-.-.-.8.6.-.-.-.-.-.-.y.-.-.-.y.8.8.5.8.=.0.0.e.1.@.^ f 9 & X                                                 ",
"                          X   .                                                                                                             ",
"                                                                                                                                            ",
"                                                                                                                                            ",
"                                                                                                                                            "
};
