/* XPM */
static char *MjQxNjYrJTI4MiUyOSslMjgxJTI5KyUyODElMjlfcGhvdG8tcmVzaXplci5ydSslMjgxJTI5[] = {
/* columns rows colors chars-per-pixel */
"70 70 94 2 ",
"   c #010101",
".  c #0A0602",
"X  c #0E0802",
"o  c #0B0B0B",
"O  c #130B03",
"+  c #190E03",
"@  c #1D1103",
"#  c #141414",
"$  c #181717",
"%  c #1C1B1B",
"&  c #251504",
"*  c #281705",
"=  c #2D1A05",
"-  c #341D05",
";  c #381E04",
":  c #372006",
">  c #3B2206",
",  c #242323",
"<  c #282727",
"1  c #2B2A2A",
"2  c #302F2F",
"3  c #353333",
"4  c #393737",
"5  c #3B3939",
"6  c #422607",
"7  c #462807",
"8  c #4C2C08",
"9  c #512D07",
"0  c #512E08",
"q  c #563108",
"w  c #5D3509",
"e  c #61370A",
"r  c #65390A",
"t  c #6B3D0A",
"y  c #73420B",
"u  c #7B460C",
"i  c #7F480C",
"p  c #834B0D",
"a  c #894E0D",
"s  c #8D510D",
"d  c #93540E",
"f  c #99570E",
"g  c #9D590F",
"h  c #A35D0F",
"j  c #A45D10",
"k  c #A9600F",
"l  c #A76010",
"z  c #AB6210",
"x  c #B26511",
"c  c #B46711",
"v  c #B66812",
"b  c #B86912",
"n  c #BA6A12",
"m  c #BD6B12",
"M  c #BE6C12",
"N  c #C06D12",
"B  c #C26E12",
"V  c #C36F13",
"C  c #C47012",
"Z  c #C57013",
"A  c #C97213",
"S  c #CA7313",
"D  c #CB7413",
"F  c #CE7514",
"G  c #D07714",
"H  c #D37813",
"J  c #D47914",
"K  c #D57914",
"L  c #D77A14",
"P  c #D87B15",
"I  c #D97C15",
"U  c #DB7C15",
"Y  c #DC7D15",
"T  c #DE7E15",
"R  c #DF7F15",
"E  c #E08015",
"W  c #E18015",
"Q  c #E38116",
"!  c #E58216",
"~  c #E78416",
"^  c #E88416",
"/  c #EA8516",
"(  c #EB8616",
")  c #EE8717",
"_  c #EF8817",
"`  c #F08817",
"'  c #F08917",
"]  c #F18A17",
"[  c #F28A17",
"{  c #F38B17",
"}  c #F48B17",
"|  c #F68D17",
" . c #F68C18",
".. c #F98D18",
/* pixels */
"                                                                      .                                                                     ",
"                                                                              # # o                                                         ",
"                                                      , %                     $ 3 o                                                         ",
"                                                  . 1 5 1                       o o                                                         ",
"                                  o                 # 2 ,                                                                                   ",
"                                , %                                                                                                         ",
"                            o < 5 3 %                                         o                                                             ",
"                          % 4 5 5 5 5 5                   + Z E E E -                                                                       ",
"                            , 5 5 5 4                   t [ [ [ ..[ [ U @                 , 3                                               ",
"                            . 5 5 5 3                 X H z p f [ [ [ [ f                                 # %                               ",
"                            % 5 # % 4                 + 6 +   + M [ [ [ J >                           o < 4 5 1 #                           ",
"                                                                w [ [ [ [ w                             % 5 5 1                             ",
"                                                  .             q [ [ [ [ [ +                           % 3 2 1                             ",
"                                                                q [ [ [ [ [ u                     .     o o   $                             ",
"                          o                           r x x a   w [ [ [ [ [ [ a   u z x x f                                                 ",
"                                        o         p _ [ [ [ = r [ [ [ [ [ [ [ [ s o E [ [ [ _ m         .                   3               ",
"                                              6 V ) [ [ [ r - [ U U ` { ` { { { _ u g ` { { { ` M 8                                         ",
"                                            e  .F c _ [ D t Y ~ u V { { { { ` ` { { O { ` ` { { [ ~ 0 @ u 7                                 ",
"                                      z a e ~ ^ e P [ [ h a [ - r ` { ` { ` { { ` { v b { { ` { _ [ R + f J v 6                             ",
"                4 %             o u [ ) = A [ . ! [ [ ) a k [ + { { { ` { { ` { ` { { = { ` { {  .[ [ b u [ [ [ u                           ",
"  o o                         6 P [ [ J y [ - 8 [ [ [ E 9 [ & & { { ` { { ` { { { { { - { { ` ` [ [ _ ] s b [ [ { t                 $ o     ",
". , %                       w [ [ [ [ u _ z w [ [ [ [ E 9 [ & h ` { ` { { ` { ` { ` ` j ` { { { ] _  ._ D E [ [ {  .i               , %     ",
"  < $                     q E [ [ [ [ G [ y x [ [ [ [ E 8 | = [ { ` { { { { ` { { { { } ` { { {  .] ] [ [ _ [ [ { { ^ *             o .     ",
"            .           . i [ [ [ [ [ [ x q E [ [ [ [ ) v  .* [ { { { ` ` { { { ` ` { { { { ` ` ] ]  .[ [  .[ [ { {  .z       o             ",
"                        t [ [ [ [ [ [ [ x i [ [ [ [ [ [ ^ [ & [ ` { { ` { { { ` { ` { { { ` { { { ` ` { ` { { { _ { { _ w                   ",
"                        [ [ [ [ [ [ [ [ G v [ [ [ [ [ [ ^ [ & [ ` { { ` { ` { { { ` { ` { { ` { { { { { { { ` ` { { ` { u .                 ",
"                      V [ [ [ [ [ [ [ [ _ _ [ [ [ [ [ _ H [ v [ { { { { ` { ` { { { ` { ` ` { { ` { { ` { ` { { _ ` { { R *                 ",
"      o             o ^ [ [ [ [ [ ^ [ [ [ [ [ [ [ [ [ ~ d [ [ [ { ` ` { { { ` { ` { { { { { { ` ` _ { ` { { ` V { { { ` { -                 ",
"    o 4 o           p _ [ [ [ [ R [ [ [ [ [ [ [ [ [ [ [ ! [ [ [ { ` ` { { { ` { { { ` ` { { { j f p j b { ` { ` { ` ` { { a                 ",
"    # 4 1           z [ [ [ [ [ U [ [ [ [ [ [ [ [ [ [ [ [ [ [ [ { { { { ` { ` { ` { { { { { t         6 { ` { J M { { { { }                 ",
"      o o         = A [ [ [ [ 6 [ [ [ _ = & & -  .[ [ [ [ [ [ [ ` { { ` { ` { { ` { { { ` r           . a { { v p } { ` { {                 ",
"                  t [ [ [ [ [  .[ [ [           6 ~ [ [ [ [ [ [ ` { { ` { { { ` { { ` { ^ 6       O + O u { ` M f } { ` { } +               ",
"                  t { ` { { v } [ [ V   X .       p { { { { { ` { { ` { { { ` { ` { { { p       = D { D j { ` P V _ { ` { { b               ",
"                  r { { { } 7 ^ [ [ 8 s j g @     p ` { ` ` { { { ` { { ` { ` { { { ` J -       y { _ { } { { P p G { ` { ` !               ",
"                & V ` { ` { f { [ [ > _ [ [ -     O D } { { ` { { { ` ` { ` { { { { { p         y _ { } ` { { F - m { { { } R               ",
"                -  .{ { ` { K { [ [ t [ [ [ ;       j { { ` { { ` { { { { { { ` } P 0           y { { { { { { z   m { { { } E         # #   ",
"                = { { ` { ^ V { [ [ [ [ ` { 0         g [ [ [ { { ` { { ` { v d d =           O j { { ` { { { x   m { { { { R         o .   ",
"                = { { { { P t { [ [ [ [ { { K           q q b  .} { { y d { b                 - _ { { ` { ` { x   m ` ` ` { R               ",
"                * { ` { { Q > _ [ [ [ [ { ` }               O @ r { -   . j { x               J _ { { { { { ` j   m { { { } R               ",
"                = { ` { { { 6 _ [ [ [ [ { { { Y X   .         - { J @   X r ^ { f X       @ R { { ` ` { ` { _     V ` { { } E               ",
"                - [ [ [ [ [ 6 s [ [ [ [ [ [ [ _ f -       - w { { w   y a O R { ` d r r e D { ` [ [ [ [ [ [ [     V [ [ [ [ E               ",
"                = [ [ [ [ [ 7   [ [ [ [ _ [ [ [ ` A j j j F { { N = s { R 7 7 } { { { ` { { { _ ! [ [ [ [ [ 0   6 U [ [ [ [ E       o       ",
"                = [ [ [ [ [ 0   7 [ [ [ F [ [ [ { { ` { { { ` ` g 0 ! { ` ^ + { { { { ` { ` { Z > F [ [ [ [     p [ [ [ [ } E               ",
"                = [ [ [ [ [  .  - Y [ _ f y _ [ ` { { { { { { { } { { ` { { ` { ` ` { { { { { g   z [ [ [ t     i [ [ [ [ } E               ",
"                = [ [ [ [ [ [ X   7 P [ g @ D [ ` { { { { { { ` { { { ` { { { ` { { ..} { { } .   8 ) [ J =     p [ [ [ [ [ !               ",
"                =  .[ [ [ [ [ z     : [ j   > [ { { ` R ` ` { { { ` { ` { ` { ` { ` 0 { { { R       ! [ p .   = J [ [ [ [ [ h               ",
"    .           + x [ [ [ [ [ [       X x     r { { 0 + { { ` { { { ` { { { { { { f . ..` { O       . b       6 [ [ [ [ [ [ .               ",
"                  t [ [ [ [ [ [ b             . F { =   8 _ { { ` { { w J ` ` { ` 0   = { G           s       r [ [ [ [ [ [                 ",
"                  y _ { _  .{ _ G ;       .     - K =   & b { { { { R   w { ` { D =   @ x 8     ; &           { { { ` { { x                 ",
"      , o         q Q { { _ _ { { f O     r =   . > O     & K { { { q   + x { { d       w 6   @ x 6         - { { _ { { ` >           # < o ",
"      5 o           z { {  . .] ` { >     i ^               j } { ` &     g { { s             - [ _         { ` { { ` ` { -           # 3 . ",
"                    p _ _ ] ] ] { { { -   p { >         .     M { w         J F               a [  .>     - { { ` { { { t                   ",
"                      ^ { { { { { ` { R + u { ^ &     . w     + v -         t F             . { [ [ {     m ` { _ { { F -                   ",
"                      ;  ._ { _ { ` { ` d p { _ d     j R 8     +     j       - . X         x { [ [ { a e E { { { _ { g                     ",
"                        _ { { { { { ` { { { ` { { t   { { t         y P +       r { O       ! { [ [ [ R V { ` `  .{ !                       ",
"                        * F { _ ` { { { ` { { { { s o  .{ { 8     & P { z +   o s _ { >   z { { [ [ [ [ { { { { { b                         ",
"                          - G { ` { { { ` { { ` { { t { ` { R     s { { ` 0   * { { ` D 6 D { ` { ` { _ _ {  .{ x +                         ",
"            .               & _ { { ` { ` { { ` ` { ! { { { { z 7 R ` { { D + V ` { { ^ U { { ` { { { { { { { m +         ,                 ",
"          % $         o         > _ ^ } { { { { { { { ` { ` { R d { { { ` { N { ` { { { { { { { ` { { { _ !           # 3 5 4               ",
"        o 5 5 .                     - z M ` ` { { ` { ` { { ` { { { { ` { { ` { { { ` ` { ` ` { ` { { _ u               $ 1 o               ",
"          $ %           o #             + x } } { { ` { { ` { { { ` ` { { { ` { ` { { { { { } { { { { D -                   o               ",
"                        o ,               + D } ` { ` { { { { ` { { { { ` { ` { { { ` { ` { { { { ` _ &           o                         ",
"                                              t R R R R J J _ { ` { { ` { ` { { { { R R _ { { R R >                                         ",
"                                                            p z ` { { ` { { { ` F j X X t j f O               % , o                         ",
"                                                              . r u ! { { P y r >                             5 5 o                         ",
"                                                                  . & & = @                                   o o                           ",
"                              5 <                                                       o o                                                 ",
"                              %                                                         % 5                 # o                             ",
"                                                                                        o %                 5 #                             ",
"                                .                                                                           o                               "
};
