/* XPM */
static char *d4fc8ceded5345fba6aa6114bb1e4d38j5q34QxNMYhy2W0V[] = {
/* columns rows colors chars-per-pixel */
"70 70 223 2 ",
"   c #010101",
".  c #0A0302",
"X  c #0B0707",
"o  c #0B0A04",
"O  c #130503",
"+  c #1D0302",
"@  c #130B04",
"#  c #1F0C04",
"$  c #15090A",
"%  c #191509",
"&  c #1D1A11",
"*  c #230604",
"=  c #2B0705",
"-  c #220B08",
";  c #2C0C0B",
":  c #390901",
">  c #3B0C0A",
",  c #27140A",
"<  c #371705",
"1  c #361E0C",
"2  c #281A11",
"3  c #331B12",
"4  c #1F2117",
"5  c #38220A",
"6  c #333112",
"7  c #3D3116",
"8  c #490600",
"9  c #440B00",
"0  c #4D0F0A",
"q  c #560A04",
"w  c #580B05",
"e  c #401B02",
"r  c #461808",
"t  c #571805",
"y  c #630802",
"u  c #640A02",
"i  c #7C0C02",
"p  c #6B160A",
"a  c #7A180E",
"s  c #721711",
"d  c #462500",
"f  c #45270A",
"g  c #592904",
"h  c #4C3500",
"j  c #42360B",
"k  c #5A3703",
"l  c #432813",
"z  c #46361B",
"x  c #583115",
"c  c #672B01",
"v  c #6A3702",
"b  c #783A07",
"n  c #77291A",
"m  c #7F341E",
"M  c #3D5111",
"N  c #3F5125",
"B  c #764D0D",
"V  c #555A30",
"C  c #784426",
"Z  c #795825",
"A  c #86130B",
"S  c #84150D",
"D  c #971808",
"F  c #AE0E03",
"G  c #A50F08",
"H  c #B10C03",
"J  c #AD1205",
"K  c #A61708",
"L  c #AF1509",
"P  c #B31303",
"I  c #B41A03",
"U  c #BA1D03",
"Y  c #B3160C",
"T  c #B31C0A",
"R  c #872D18",
"E  c #962818",
"W  c #803310",
"Q  c #99391B",
"!  c #A9250A",
"~  c #B42202",
"^  c #BC2403",
"/  c #B42907",
"(  c #BC2A03",
")  c #BD3203",
"_  c #B83606",
"`  c #AA2C15",
"'  c #B03111",
"]  c #A63C22",
"[  c #C12C02",
"{  c #C33503",
"}  c #C53C03",
"|  c #C63D06",
" . c #874606",
".. c #91540F",
"X. c #BE4505",
"o. c #BC4C16",
"O. c #A95A11",
"+. c #B25713",
"@. c #8D6510",
"#. c #B56712",
"$. c #8E502B",
"%. c #A24424",
"&. c #BC4C25",
"*. c #B44B31",
"=. c #8A6B2F",
"-. c #966A2C",
";. c #B07633",
":. c #C44306",
">. c #CC4502",
",. c #C44A02",
"<. c #CC4C04",
"1. c #C84809",
"2. c #D14E02",
"3. c #D34B0A",
"4. c #CB5205",
"5. c #C75806",
"6. c #D15503",
"7. c #D35903",
"8. c #D55909",
"9. c #D25D0C",
"0. c #CB4717",
"q. c #C44419",
"w. c #CD511B",
"e. c #D0511B",
"r. c #D15C1F",
"t. c #C76A0C",
"y. c #D36304",
"u. c #D96204",
"i. c #DC6B04",
"p. c #D96B0A",
"a. c #CB7609",
"s. c #D67305",
"d. c #D57A04",
"f. c #DC7905",
"g. c #DB730C",
"h. c #DB7C0A",
"j. c #C86C17",
"k. c #D76912",
"l. c #C47313",
"z. c #D77615",
"x. c #DC7C11",
"c. c #E27B09",
"v. c #C54A22",
"b. c #C95425",
"n. c #DF5A2A",
"m. c #D66724",
"M. c #D56824",
"N. c #C9772B",
"B. c #D87729",
"V. c #DD7429",
"C. c #E07F2B",
"Z. c #E56E32",
"A. c #CC795B",
"S. c #6D862B",
"D. c #7B9525",
"F. c #6DAF39",
"G. c #76B539",
"H. c #8A981F",
"J. c #A9971D",
"K. c #978D2E",
"L. c #B38E2B",
"P. c #A1B43E",
"I. c #DD8209",
"U. c #DB8608",
"Y. c #DD8310",
"T. c #E98806",
"R. c #E48609",
"E. c #E58C0B",
"W. c #E99607",
"Q. c #EB940B",
"!. c #ED9A0B",
"~. c #F29D0B",
"^. c #E38A13",
"/. c #EB9516",
"(. c #F19A12",
"). c #F4A705",
"_. c #F3A30C",
"`. c #F9B309",
"'. c #EDA915",
"]. c #EFAB1D",
"[. c #F4AD13",
"{. c #F8B515",
"}. c #D28E2F",
"|. c #D69534",
" X c #E48726",
".X c #E28A2D",
"XX c #E78833",
"oX c #E69333",
"OX c #EA9A36",
"+X c #EA9D38",
"@X c #F2963A",
"#X c #E9A428",
"$X c #E9B52C",
"%X c #F7B726",
"&X c #EDA63A",
"*X c #F0AF3E",
"=X c #EDB43D",
"-X c #F2B938",
";X c #AECE3B",
":X c #F2C129",
">X c #F9C833",
",X c #8CB34D",
"<X c #EFAE42",
"1X c #F3AD42",
"2X c #EAB543",
"3X c #F4B042",
"4X c #F5BC44",
"5X c #E3BC59",
"6X c #CEB665",
"7X c #94C749",
"8X c #B8DB4F",
"9X c #B7D663",
"0X c #F7C64B",
"qX c #FAC84D",
"wX c #FCD34C",
"eX c #E7C65D",
"rX c #FBCD52",
"tX c #FBD455",
"yX c #F5D759",
"uX c #FDD659",
"iX c #FED95B",
"pX c #F2D261",
"aX c #FEDD61",
/* pixels */
"                  X                                                                                                                         ",
"                                                        X                                                 X                             X   ",
"                                  X                                             X                                                           ",
"                                                                                                X                                           ",
"                                                X                                                                                       X   ",
"                                                                          o                                             o                   ",
"                                                                                                                                            ",
"                                                                                                                                            ",
"                                                                                                                                            ",
"                              X             X                                               X                                               ",
"                                                                                                X                                           ",
"                                                                                                                              X             ",
"                                                                                                                                            ",
"      X                                           X                                                                                         ",
"        X                                                           o o X X     X                                                     X     ",
"                                  X                               N ,X7XN                                   X                               ",
"                                                        . .     % 6 S.P.V 4 X                                                               ",
"                                                        . , 5 6 S.9X8X;X9X,XM 1 3 # .                                         X             ",
"                                                    O 5 c O.j.L.G.F.G.G.G.G.H.#.M. .g 3 .                                                   ",
"                                  X           X O 5 b j.p.h.^.l.J.H.D.D.D.K.J.z.^.s.z.#.c , .                                               ",
"          X                                   @ g #.a.h.E.[.Y.Q.{.%X-X=X-X{._.f.U.!.U.h.z.O.f O X                                           ",
"                    X                       # B a.d.s.W.`.E.I.{.>XiXaXaXaXwX:X~.d.{.).E.x./.#.g o                                           ",
"                                          # b d./.h.W.`.{.a.!.:XyXaXaXaXaXaXwX'.R.U.`.`.E.^.(.#.c @                             X           ",
"                                        O v a._.Y.E._.$X..h.'.wXiXiXiXiXaXiXiX>X!.l.B `._.h.U.!.#.g .                                       ",
"                                      . g t.!.I.h.!._.k , |.%XyXiXiXiXiXuXuXiXwX].v % }.).W.x.(./.+.1 .                                     ",
"                                      1 O.T._.h.U._.L.o X x wXyXtXtXtXtXtXtXtXtX5X&   f '.W.f.d.!.R. .#             X                       ",
"                              X   . O c f.W.d.a.W.#X5 .   & 6XrXtXtXtXtXtXtXtXyXj X   $ @.!.U.h.!.W.j.t                                     ",
"  X     X                           r j.T.(.g.f.W...@ .     7 pXtXrXrXrXqXrXtX6X&   X X 5 #XW.y.s.W.h.O.,                                   ",
"                    X             $ c c.T.c.p.f.|.5         & K.qXqXqX0XqXqXeX5         o c R.s.p.T.R.k.e .                                 ",
"                                  < +.f.R.y.y.h.k .       .   z 5X0X0X0X0X0X=.%           3 }.c.p.h.T.g.m $                                 ",
"                                . 0 9.f.c.k.p.N.1 . .     .   @ B 4X0X4X0XeXV   . . . o . o c x.5.y.c.i.+.; X     X             X           ",
"                                @ b y.i.g.8.u.#.k d < d d h h h @.2X2X4X2X2XB h h h d < d d B x.7.9.c.i.5.<                                 ",
"                                * +.u.i.7.,.y.i.i.i.4.4. X3X<X<X2X<X<X*X*X<X=X<X<X1X5.,.p.i.i.i.8.9.p.i.5.t X .                             ",
"                                : o.7.u.4.,.7.u.u.u.X.4.@X&X&X&X&X&X}.|.&X&X&X&X&X&X5.4.k.u.i.8.6.3.u.8.6.W $                               ",
"                              X : X.6.6.,.,.6.7.6.7._ 4.@X&X+X+X+X<X-.Z |.+X+X+X&XOX5.q.8.7.7.7.<.1.6.6.1.Q $                               ",
"      X                         9 X.<.6.:.} <.2.2.2.) :.@XoXoXoXoX;.l 2 ;.OXoXoXoXoXX.| 3.2.2.2.>.| 3.6.1.] X .                             ",
"                                9 | >.>.} } :.>.>.2.( } XXXX.XXX.XZ X X z N.oX.X.X.X,.{ 3.2.>.>.:.} >.>.| ] $                               ",
"                    X         X 9 ' } | { ) } } | | / ) C.C. XC.N.-.Z Z $.;.B..XB. XX.) | } } } { { } | } Q $                               ",
"                              X : / { { ) ( { } { } / ) Z.B.V.B.V.N.N.B.N.B.B.V.V.V._ ^ { { { { ) ) { { { R X           X       X           ",
"                                = ` ^ [ ^ ^ [ [ [ ( / ( Z.m.m.M.M.Z.m.m.m.m.m.m.M.m.( [ [ [ [ [ ( ( ( [ / p . .                             ",
"                                - E ^ ^ ^ ~ ^ [ U [ U ~ n.r.r.r.b.r.r.r.r.r.r.r.r.r.~ I ( ^ [ ^ U ^ [ ^ T 8   .                             ",
"                                . p T ^ ~ I ~ I [ U D E q.w.e.e.b.e.w.e.e.v.e.w.e.w.! i I U U I I U U U ` ;   .             X               ",
"                                . : K I I I I I U P Y = O m &.0.0.0.q.q.| &.0.q.*.t - A.U I P I I I P I a $                                 ",
"    X                         X   @ p L U P P P P H P E * $ C ' ` R n n n Q _ ] = o C D H P P P I P P K : X   .                             ",
"                                  X ; A H H L H H H H H E ; + + + O   . . ; 0 r 3 x D F H H P J H H L s $ X                                 ",
"                                    . > D J F L G H H H Y ] 9 3 o         X % 1 -.K H H H F J H F F S ;                                     ",
"    X                           .     X > i G J L H H H L L ' %.t < l 7 5 < B &./ F F H H F J J G a ; X                         X           ",
"                                        . - w A G L J F F J T T T _ v.b.q.' T T L F F F J J G A w +           X                             ",
"                                            X * 0 u i D K Y L I I P L I U T I P Y Y K D i u 0 -                                             ",
"                                                X . + > 0 0 q q w y y y y y w q 0 0 0 > * . . .                                             ",
"                X                                               . . . . . .   . .       . .                                                 ",
"                                                                                                                                            ",
"                X                                                                                                                           ",
"                                                                                                                  X                         ",
"      X                                                                                                                         X           ",
"                                                                                                                                            ",
"                                                                                                                                            ",
"                                                                                                                                            ",
"                                                                                                                                            ",
"                                                                                                                                            ",
"                                                                                                                                            ",
"                                                                                                                                        X   ",
"                                                                                                                                            ",
"                                                                                                          X   X                             ",
"                                                                                                        . .                                 ",
"                                                                                        . .           . . .                                 ",
"                                                                                  .                 . .       .                             ",
"                                                                                                                                            ",
"                                                                    .                                                                       ",
"            X                                                                                                                               "
};
