/* XPM */
static char *MjQxNjYrJTI4MiUyOSslMjgxJTI5KyUyODElMjlfcGhvdG8tcmVzaXplci5ydQ__[] = {
/* columns rows colors chars-per-pixel */
"70 70 100 2 ",
"   c #000000",
".  c #0A0500",
"X  c #0E0801",
"o  c #110700",
"O  c #130A01",
"+  c #1A0E02",
"@  c #1E1101",
"#  c #230F01",
"$  c #231302",
"%  c #2A1601",
"&  c #2C1903",
"*  c #341C02",
"=  c #3A1E02",
"-  c #3C2204",
";  c #432604",
":  c #4A2703",
">  c #462804",
",  c #4D2C04",
"<  c #532D04",
"1  c #553005",
"2  c #5D3505",
"3  c #613605",
"4  c #653A06",
"5  c #6B3C05",
"6  c #723F06",
"7  c #6F4007",
"8  c #734207",
"9  c #7C4507",
"0  c #7F4807",
"q  c #744308",
"w  c #7B4608",
"e  c #7E4808",
"r  c #804707",
"t  c #854A06",
"y  c #8B4D06",
"u  c #834B09",
"i  c #8A4F08",
"p  c #8E5007",
"a  c #8E5109",
"s  c #945206",
"d  c #9C5707",
"f  c #9D5807",
"g  c #945409",
"h  c #9C590A",
"j  c #A25B06",
"k  c #AA5F07",
"l  c #A45E0A",
"z  c #A7600B",
"x  c #AC620A",
"c  c #B16407",
"v  c #B3660B",
"b  c #B86709",
"n  c #B6680B",
"m  c #BD6C0C",
"M  c #C26E0A",
"N  c #C26F0D",
"B  c #C5710C",
"V  c #C5710D",
"C  c #C7710C",
"Z  c #C7720D",
"A  c #C7730D",
"S  c #CC730A",
"D  c #C8720D",
"F  c #C8730D",
"G  c #CB740D",
"H  c #CC740C",
"J  c #CD750D",
"K  c #CE760E",
"L  c #D1770D",
"P  c #D1780D",
"I  c #D1780E",
"U  c #D2790E",
"Y  c #D57A0C",
"T  c #D77B0D",
"R  c #D77B0E",
"E  c #D97D0E",
"W  c #DD7E0C",
"Q  c #DD7E0D",
"!  c #DF800E",
"~  c #E1810E",
"^  c #E1810F",
"/  c #E2820F",
"(  c #E3820F",
")  c #E6830F",
"_  c #E7850F",
"`  c #E9860F",
"'  c #ED880F",
"]  c #EF890F",
"[  c #F18B0F",
"{  c #E58310",
"}  c #EC8710",
"|  c #ED8810",
" . c #EE8910",
".. c #EF8910",
"X. c #F18B10",
"o. c #F38B10",
"O. c #F48C10",
"+. c #F58D10",
"@. c #F58C11",
"#. c #F78F11",
/* pixels */
"                                                      . . . . .                                                                             ",
"                                                    O Q o.o.| m @ O                                                                         ",
"                                                  $ ^ o.O.O.O.O.| z O                                                                       ",
"                                                & U Y n D O.| | o.o.a X                                                                     ",
"                                                e z 1 . = x O.O.| O.B ;                                                                     ",
"                                                          + O.| O.O.O.u X                                                                   ",
"                                                          + O.o.O.| O.B -                                                                   ",
"                                                          + o.o.O.O.O.O.3                                                                   ",
"                                                          @ [ [ o.O.O.| m &                                                                 ",
"                                                , g l q   @ [ [ o.| o.O.+.z $   - z j z g %                                                 ",
"                                          + r n U ' [ * . m [ [ o.o.o.O... .A @ O | o.O.| B n 7                                             ",
"                                        2 K ) [ O.[ M . F | [ [ | o.O.| o.....K O 2 | O.O.| O.^ y @                                         ",
"                                      1 ) O.o.O.o.[ % K [ ' x n O.o...o...#.+...! X O.O.O.| | O.{ U ,                                       ",
"                                  . 5 } B x ^ | o.m O ` ) @ y ' o.o.o.o.o.+.o...O.. | O.O.O.o.o.o.o.F = g { ;                               ",
"                          . # L   > ` d $ f o.O.O.% Q O.x @ O.O...O.O...+...+.+.| O.. | | o.o.O.o.o.[ 6 X B o.o.: .                         ",
"                      O d o.o.D > [ m - e o.o.O.| * E ` . h ..| O.....O...o.o...O.O.. O.O.O.| O.| o.o.o., n | o.o.Q O                       ",
"                    $ K ..O._ & [ _ g q O.o.o...U q _ a . [ O.O.+.o...o.+.X...+.o.| - +...o.o...O.o.| O.o.- ! +...+.K @                     ",
"                  & A O.o..._ g ' j - Y O.o...O.2 U o.. . #.O.| ....+.+.+.X.X...+.o._ +.+...+.+.o.o.O.O.+.x _ ] ..o.o.B &                   ",
"                * m ..O.o...U +.Y 2 u O.O.O.O.O.- B ... * [ O.o.o...o...+.+.o...o.| X.#.o...+.o.o.O.| O.o.....[ +.+...+.n O                 ",
"              * n ..O.O...o.! [ A - O.| ....O...- B +.. m [ o.o.X.....+.o. ...+.+.o...+...+.#...o.O.| O.+...+.+...o.o...U 3                 ",
"            & x ..O.O...O.O.o.| z e +...O.O...O.- A o.. ......o.X.X.+.+.+.o...o.o.+...o.o.o...o.| O.O.o.o.o...#.O.O.O.O.[ m -               ",
"            5 | O.....O...| O.! 1 ! +.o...O.O...- B ... #...+.+.X.X.+.+...o.+... .o.+.o.O.| o...| O.| o.O.| o...| | O.| #.' e               ",
"          - m O.O.O.O.O.O.O.O.Y & ' o.....O.O...- A ' - +.+.o...+.....o.+.....o.o...o.+.o.O.O.O.O.O.| o.o...O.o.O.O.O.O.[ [ z $             ",
"          2 O.O...O.....O...O.! 2 [ o...O.O...O.5 U o.m +.[ ..+.o.o...+.o...+.+...+.o...o.O.| | o.o.O.o.o.o...o.o.o.O.O.[ [ ^ 2             ",
"        - K | O.| | O.O.O.O...| P [ [ [ O.| O.O.U ` O.o.+.o. .o...+.+.+.+.o.+...| O.O.| O.O.o.o.[ [ o.o.o.....o.h ' O.O.| | O.8             ",
"        , o.o.O.O.O.O.{ ..O.O...[ [ O.O.O.| o.o.' O.o.o. .+.+. .o...X.X.+.....o.o.o.o.o.O.| O.| O.! / | +.+.o.o.^ [ O.| O.O.[ z &           ",
"      X 7 o.o.o.O.O.O.| O...O.O.O...o.o.o.o.O.O.O.| | O.+.+.+...+.....X.+.o.+.o.O.O.| O.o.O.x @ @ O @ @ m ..| o.[ o.[ O.O.O.o.' 2           ",
"      - o.O.| o.| O.Y | O.| O.O...O.O...O.O.| | o.o.o.o.+.X...o...o.X.X.....+...| O.O.O.o.n .           w / o.o.' % o.O.o.| O.O.3           ",
"      - O.o.| O.O.| | O.O.| | x       - m ' O.O.o.o.+...+.o.....o.....+.o.X.X.X.o.| O.O.F O               A o.o.' & o.+.o.O...O.3           ",
"      , o.o.o.o.o.4 m o.O.O.j           $ x O.| O.| [ +.+...+.....+.o.......X.X.o.o.O.| m         X @ @ . B o.o.' j o.o.| O.O...w X         ",
"    $ S | O.| o.o.) ' o.O.O.    X         r O.o.o.o...#.....o.o...X.+.o.+.o.+.+.| O.O.^ ,       X g O.| 4 U o.[ o.! Y o...O.O...{ >         ",
"    & O.O.O.O.O.! { o.o.| O.  ; q &       1 U o.o...o...o.+...+.X.X...o.....+.+.o.o.o.v         1 Y o.o.] ' | +.[ U 3 ..O.O...O.O.,         ",
"    & o.X.X.o...a n O...O.O.1 O.o.n         g o...o.O.| O.O.O.| X.X...+.....o...o.o.' *         8 o.o.| o._ o.o...m & ..o...+.+.o.,         ",
"    & ..X.....+.2 z O.O.O.O.o.| o.B *       4 E O.o.o.O.o.| O.O.+.+.o.+.o.+.X...[ { a           7 o.O.O...O.+...' y & o...+.o.+.o.,         ",
"    & +.X.X. .o.2 z O...O.O.o.o.o.| a       O x ..O.o.o.o.| O.O.+.o.+...] ] X.X.a 8             8 O.O.| o...| o.' & & [ o.....+.O.,         ",
"  . , +.+.+.+...2 z O.| o.o.o.O.o.| z         , a { O.| O.O.| O.+.....o./ g q q X             O u | O.O.o.o.O.o._   & ] +.+...o.O.,         ",
"  X a o.+.+.+.o.2 z ....| O.o.| o.| z           O 1 2 f ' O.o.O./ h z O._ ,                   > K o.o.o.| O.O.o.|   & ....+.o...O.,         ",
"  O F o.+.X...+.2 z o.o.O.O.o.O.o.o.z .               $ , 3 O.! u @ @ z +.m &               @ g O.o.O.O.| O.| o.|   & +.o.....+.O.,         ",
"  O ) o.X.X...o.2 h ..o.o.| | O.o.o.{ 6                 . m o.m @     $ z o.A $           @ a ! | O.| | O.O.| o.2   & o.+.X...X.O.,         ",
"  @ | o.X...+...2 @ m +.o.O.O.O.o.| o.{ 5               F [ K $   , 4   g [ ' U *       $ F { O.O.O.O.O.o.o.O.o..   % +.+.X.X.X.O.,         ",
"  @ O.O.| o.o.| 2   n o.o.o.O.| o.o.| O.{ B >       5 Y o.O.V   > / ) 4 @ n ..o.! ! P ! ! O.| O.O.| O.O.o.o.o.[     & [ O.o.o.| O.,         ",
"  O | | O.O.O.O.V * & L o.o.O.O.o.| O.O.O.| | ` ' ) ' [ O.| A - ! o.O.9 . z +.| +...o.] O.| O.O.O.O.O.| | o.o.$   . 5 | O.O.O.O.O.,         ",
"  @ ^ O.O.| o.o.o.,   m | o.| ! < | o.| O.O.o.o.O.O.O.O.o.| p ; O.....O.4 z  .+.+.o.o. .o.o.| g   u O.O.o.O.| .   O ' O.O.| | O.o.,         ",
"  O c O.o.O.O.| O.<     U o.o.Y % { O.O.| O.| o.| o.o.| o.o.[ o...O.O.....+.o.......+.o.o.o.| a   q ) O.| o.s .   @ O.O.o.O.o.o.O.,         ",
"  . 2 +.o.O.o.o.O.e X   5 | O.Y   * E O.O.O.O.o.[ [ O.O.O.O.o.O.O.O.+.o...+.+.o.o.A o.O.O.| B ;   . g | | { @     @ +.+.o.O...O.[ <         ",
"    % o.O.| | o.| o.-     z O.E   . 5 | O.| o.A ^ [ O.O.| | o.O.O.....o.o... .+...@ | o.O.O.x       w ` o.p .     > o.+.o.....O.` ,         ",
"    & +.o...O.o.o.o.q X     x Y     - B | O.o., z ' o.O.O.o.O.| ..o.o.....+...+.o.. x o.| ! q       @ v m @     . Y o.....O.O...z $         ",
"    & #...o...o.O.O.O.&     . r       > F ' U - , ! o.| O.o.O.| o.' / o.o...+.+.h   O [ O.n           a -       . +...o.o...O.O.2           ",
"    & | O...O.O...O.#.a .             . r O.w O   5 { O.O.o.| O.U q j o.O.o.o.o.+   . g ' g     . .   - O       3 O.| O.O.| O.O.2           ",
"    O g ..O.O.....O.o.o.O       @ 3     - n 2       n o.O.| O.O.z   , K O.| o.{ +     @ U &     - -             Q o.O.O.o.o.O.K >           ",
"      - ..O.| O.O.O...O.h       & B @     > *       - } o.o.o.L ;   O g | O.O.7 .     X 1     . r g +         . o.| O.| o.O.| a O           ",
"      - O.O.O.O...O.O...O.a     & ) w     . .         , o.o.o.v       * n O.| &               > U Q ,         h o.o.O.O.o.[ [ 8             ",
"      O q O.| O.o...O.O.O._     % ' ! 7                 n [ ! 3       . g O.M @               3 [ o.s @       } | o.O.| o.O.h @             ",
"        , O.o.o.o.O.....O...m   % ^ [ s         g $     $ o.D .         + v < .             ; Y o.o.) >     n | O.o.o.o.| O.u               ",
"        O u O.o...o...O.O...O.A $ A [ _ q       m ,       & v             l -               , O.o.o.| g @   E o.o.o.o.o.O.h X               ",
"          3 O.o.#...O.O...O.O.| ! z [ ' n -     n } +       .   , a       .     U .       - ....o.o.O.| - m o.o.| o.O.[ ! 5                 ",
"            7 | +.o.O.O...O.O.....+.....o.q   , U ..o..         1 O.u         F X.1       > ..O.O.[ o...U | o.O.O.o.O.| h                   ",
"            @ f | +...[ O.....O.o.+.o.+.X...2 z o.o.+.$       ; | o.a X     O K X.X.@   & [ [ #.O.#...o.O.| o.O.o.o.| j                     ",
"              , m _ ] #.O.O.O.O.o.....+.X.X.e n +.o.o.| $   . e O.| O.u O   n ' ..X.| & , #.' ....O.| o.O.| O.| ..| z                       ",
"                - a / [ ....O.....+.o.+.X.X.+.+.o.| o.+.A . ,  .O.o.O.} 2 $ m O...o...o.! [ o.o.O...o.o.O.O.O.O.' z                         ",
"                    w n ' [ o.| ..X.X.+.o...o.+.+.o.+.....2 m +.o.....+.a x | o...+.o. .o...o.+.O...O.O.o.o.O.z a                           ",
"                      O a a n o.+...X.+.+.+.....o. .+.o...+.+.+...+.o.o.o.o.O.| o. ...+.+.+.......O.O...[ z g                               ",
"                            & a +...+.....o...o.+.....o.o...+.o.+.o.+.o.o.| O.| +.+...+...o...o.#.....o.{ &                                 ",
"                              X a ....o.+...+.o...o.+.....o.....+...o...o.o.o.O.+.+.X...o...+.[ +.o...o.u O                                 ",
"                                O q S o.O.| O.| O.O.o.o.o.O.O.o.| O.O.O.O.O.O.o.o.O.| O.o.o.o.o.o.o.Y u O                                   ",
"                                  . - r ^ o.O.O.O.j 4 | o.| O.| o.o.o.| O.| [ [ o.O.| O.O.O.o.o.o.h - O                                     ",
"                                      O - - - - - @ . - o.[ O.O.o.o.o.o.O.O.o.[ z > - - : 1 ; - - @                                         ",
"                                                        & 2 O.| o.| o.[ | O.l - @         .                                                 ",
"                                                          . + + ; d j < + + O                                                               ",
"                                                                  . .                                                                       "
};
