/* XPM */
static char *ade58e7819f94ea2c68ec50e79f355f5tLVFhuXYuuCz69oW[] = {
/* columns rows colors chars-per-pixel */
"70 70 182 2 ",
"   c #000000",
".  c #060806",
"X  c #0A0905",
"o  c #040709",
"O  c #06090B",
"+  c #0B0B0B",
"@  c #120F0C",
"#  c #0F100D",
"$  c #13120D",
"%  c #1A140D",
"&  c #0C0E12",
"*  c #071017",
"=  c #0D1011",
"-  c #121313",
";  c #191612",
":  c #1A1B16",
">  c #141619",
",  c #14191C",
"<  c #1C1C1C",
"1  c #211D15",
"2  c #2B2216",
"3  c #22231E",
"4  c #3E331B",
"5  c #171D20",
"6  c #1B1E22",
"7  c #1C2225",
"8  c #17202E",
"9  c #1C232A",
"0  c #222323",
"q  c #292A26",
"w  c #22252A",
"e  c #24292C",
"r  c #2A2A2A",
"t  c #382F21",
"y  c #2F302A",
"u  c #3A3222",
"i  c #30312B",
"p  c #3C372B",
"a  c #292E38",
"s  c #2C3237",
"d  c #2D353C",
"f  c #343434",
"g  c #3E3A30",
"h  c #33363B",
"j  c #353A3E",
"k  c #3C3C3B",
"l  c #443B2C",
"z  c #473E30",
"x  c #3F403B",
"c  c #4F4637",
"v  c #514831",
"b  c #5B523B",
"n  c #2E3C46",
"m  c #353A42",
"M  c #383E44",
"N  c #383F49",
"B  c #3C4041",
"V  c #38434B",
"C  c #38444A",
"Z  c #3E4954",
"A  c #444443",
"S  c #484844",
"D  c #4D4D4C",
"F  c #4F504F",
"G  c #585142",
"H  c #444E54",
"J  c #4A4D58",
"K  c #524F51",
"L  c #4F5050",
"P  c #45535C",
"I  c #4A545E",
"U  c #565656",
"Y  c #5D5D5D",
"T  c #475765",
"R  c #4A5363",
"E  c #4E5B64",
"W  c #4F5C6A",
"Q  c #555A62",
"!  c #545D71",
"~  c #5F6261",
"^  c #53626C",
"/  c #59656D",
"(  c #546372",
")  c #5A6477",
"_  c #5C6B75",
"`  c #5E6779",
"'  c #5D6A7B",
"]  c #626263",
"[  c #666867",
"{  c #6B6C6D",
"}  c #616A7C",
"|  c #69737E",
" . c #757575",
".. c #7B7B7C",
"X. c #7F807F",
"o. c #637481",
"O. c #697780",
"+. c #647886",
"@. c #6B7A83",
"#. c #6A7E8A",
"$. c #6B7A91",
"%. c #6D808C",
"&. c #7C848C",
"*. c #6E8291",
"=. c #728395",
"-. c #7B8C96",
";. c #778B99",
":. c #7C919D",
">. c #7D94A4",
",. c #7D93A8",
"<. c #848485",
"1. c #858689",
"2. c #8A8A8A",
"3. c #838D93",
"4. c #8D8F91",
"5. c #85929D",
"6. c #929394",
"7. c #95999B",
"8. c #9A9B9B",
"9. c #8090A0",
"0. c #869AA7",
"q. c #839DAD",
"w. c #899FAC",
"e. c #899FB1",
"r. c #8DA0AF",
"t. c #9AA3A9",
"y. c #87A1B5",
"u. c #8AA2B2",
"i. c #8EA7B8",
"p. c #95AAB7",
"a. c #9CACB5",
"s. c #94ACBB",
"d. c #99AEBB",
"f. c #96B1BF",
"g. c #A4A4A4",
"h. c #A8A9AA",
"j. c #ADAEB0",
"k. c #B5B5B5",
"l. c #B3B9BD",
"z. c #BCBCBB",
"x. c #96B2C3",
"c. c #9BB5C5",
"v. c #9FB7CA",
"b. c #9BBBCA",
"n. c #9EBACB",
"m. c #A1B9C7",
"M. c #AABAC7",
"N. c #A1BBCC",
"B. c #ABC0CE",
"V. c #B1C2CC",
"C. c #ABC1D3",
"Z. c #B3C5D2",
"A. c #B5C8D4",
"S. c #BBCBD4",
"D. c #BBCBD9",
"F. c #C3C3C3",
"G. c #C1C7CC",
"H. c #C5CACC",
"J. c #CBCBCB",
"K. c #D2D2CF",
"L. c #C1CCD4",
"P. c #C5D4DD",
"I. c #CAD4DC",
"U. c #D3D4D4",
"Y. c #D6D6D6",
"T. c #DADADA",
"R. c #DCDCDC",
"E. c #DDDDDD",
"W. c #E0DFDF",
"Q. c #D2DDE3",
"!. c #DDDFE2",
"~. c #DDE2E3",
"^. c #E0E1E1",
"/. c #E2E2E2",
"(. c gray89",
"). c #E3E4E3",
"_. c #E6E5E3",
"`. c #E3E4E4",
"'. c #E6E5E4",
"]. c #E5E5E6",
"[. c #E8E5E4",
"{. c #E1E7E9",
/* pixels */
"                                                                                                                                            ",
"                                                                                                                                            ",
"                                                                                                                                            ",
"                                                  .               .                                                                         ",
"                                              + Y ~ 6.T.]./.]./././.k.{ ~ A                                                                 ",
"                                          + ..].].].]./.].]._.].].].[.].]././.] X                                                           ",
"                                        . Y.]./.].].].].].].].].].].].]._.].].].Y.-                                                         ",
"                                      o a.`.]._._.]._.].]._._.].[.]._.].].].].].].F.                                                        ",
"                                    > c.P.].].]./.]._.].].].].].(.[.].).[.`.].`.`.).2.                                                      ",
"                                    W n.P.].]._.].].].]._.[.].].].].].].].].].[.].]./.f                                                     ",
"                                  & v.N.I._.].].]._._.].].].].].`.[.].[.`.`.].[.].]._.4.                                                    ",
"                                  -.n.n.H.].].].].].].]._.].].].`.].].`.[.].].].[.(.[./..                                                   ",
"                                > x.n.n.G.)./.].].].].Y.{ 1 A 6.`.].`.].].[./.].].2.X.K.6.                                                  ",
"                                5 n.n.N.l.].].]._.].K.- 3 i i + [ ].`.[.].`._.E.< - : . 7..                                                 ",
"                                9 n.n.N.l.[.].].].`.K q i i i r   6.[.].].`.`.h.# y y : F +                                                 ",
"                                C n.n.n.l.[.].].].`.O c S i i i q 1.[.].[.`.].<.q i i y f :                                                 ",
"                                w.n.n.n.h.].].].].]., U U U k i y 1.].].].]./.D L S i i 0 z.                                                ",
"                                m.n.n.n.7.].].].[.(.- F U U U i : 1.].].].[.(.1.D I c r k ].                                                ",
"                                n.n.n.b.2.].].].].].g.q U U U A   W.].(.]._./.h.+ U U $ U /..                                               ",
"                              - n.n.n.n.2.]._.].(.(.R.U - r 1 < k.[.]._.].].`./.f < < > T./.+                                               ",
"                              Q n.n.n.d.k.]._.].].].].(.k. .&.E._.]._.].].].[.].).8.<.T.].].k                                               ",
"                              ( N.n.n.s ].].].].].(._.(._._._.(._.]._.].]./.].].`.].].]._.].U                                               ",
"                              c.n.n.n.. _.]._.].].(.(.(.(.[./.(./././././.)./././.].]._./.].Y                                               ",
"                            O n.n.n.s.k._.]._.].R.r r r 1.].Y r r r r r r r q r q 0 Y.Y r U.]                                               ",
"                            i.n.n.n.#.W.].].].].E.r U U 6 J.- U U U U U U U z s i 3 X = < E.Y                                               ",
"                          w c.n.n.n.5./._.]._.].].D S U r U k U U U Y U U U k i i i   3 X T.A                                               ",
"                          _ n.n.N.n.~ ].].]._.].].8.< U U + L U U U U U U U f i i i 3 0 D ].-                                               ",
"                        H n.n.n.b.u.K.]._.].].].].`.A D U S U U Y U U U U U i i i i y + g.].                                                ",
"                      X u.n.n.n.n.3.`.].]._._.].].].J.+ x U U U U U U Y U f y y i i 3 Y ].!.                                                ",
"                    = x.n.n.n.n.f.F.~.`.].].].].].].]./.r k U U U U U U D y i i i < 3 J.].0                                                 ",
"                  . o.n.n.s.n.n.&.B.B.`.].].].].].]._.].].[ + r L K U U i y q q X K _.].W.+                                                 ",
"                - ,.n.5.6 e c.n.b.b.S.).~.{.]._._.].].].].].Y.F.~ + + + X X X  .F.].]./.8..                                                 ",
"                B h o .   m n.n.n.n.V.D.A.[.].]._.]._.].].].].].].].]./.(.]._.].].].].].f                                                   ",
"          .             > n.n.x.+.s n.n.I.].].].].].].].(._.].].].].]./.].].].].].]._.6.                                                    ",
"                      . %.r.d .   -.n.N./.].].].(.E.].].[.].(.]./.].].E.] ].(.].[.`.S.6                                                     ",
"                        =       , c.n.~.].].].2.0 F.]._.(.].(.!.].(.F./ ^ ].].(.[.D.7                                                       ",
"                              . r.n.D.[.K.~ #._ 8.1.V.~.(._.&.d.~.6.&.v._ `.`.~.A.O.                                                        ",
"                            o | b.A.h.t.=.n.m.R V n.C.)./.<.w.n.S.e.,.n.+.].E.N.*.        .                                                 ",
"                            9 n.c.i.N.N.N.x.0.& d n.d.z.] x.n.n.x.d :.N.:.Q.N.>.+     0 `.].Y.O                                 X           ",
"                          s n.n.n.n.n.n.V &     m.P o Q w > >.;.=   m.n.n.n.;.O     , !.U.f < . . | -               o + 0 . b v 4 X         ",
"                        B v.n.n.p.Z r         , c., 5.].].g.4.+     N.N.N.I +       . & e #.d > s.!...      % g l u o 7 s   - X             ",
"                      = / _ I O               P s.o I.].].].].(.Y j n.f.V           > c.j n.E O { o % t c z 2 1 ; . o 6 h .                 ",
"                  o       .                   u./ _ P.].].].]./.`.^ %.o           + , M.9 M.a.w H.8.. .   .         o - m > w               ",
"                                            a B.* #.Z./.].].]./.2.o   .   . 1 G b u 7 {.+ E.].X z.`.              . h m m M N 5             ",
"                                            7 .   E n.~.]./.].`.+ p p u l u % $ $   . z.6.k /.g.k z.              . h m w ` o.R             ",
"                                                  . n.Z.].].`.].D # $                 - @   <                       m m 6 ` #.m.            ",
"                                                0 : R n.L._.`.~.Q..                                                 h N 8 e.e.M..           ",
"                                                .     - / P.! b.n.                                                . Q ) 8 e.r.3.            ",
"                                                          a 9 m s                                                   ! ) T e.e.5             ",
"                                                                                                                  . ! ( =.o.$.o             ",
"                                                                                                                  . Z N ` ` :.o             ",
"                                                                                                                  - h R ` ' @.              ",
"                                                                                                                  , m +.,.A.5               ",
"                                                                                                                  J T y.i.|                 ",
"                                                                                                                N W q.q.9.=                 ",
"                                                                                                              + ! n $.} o                   ",
"                                                                                                            o P n } ` &                     ",
"                                                                                                            7 9 ! J O                       ",
"                                                                                                        . - d R 5                           ",
"                                                                                                        & I ,                               ",
"                                                                                                      . + o                                 ",
"                                                                                                  .                                         ",
"                                                                                                                                            ",
"                                                                                                                                            ",
"                                                                                                                                            ",
"                                                                                                                                            ",
"                                                                                                                                            ",
"                                                                                                                                            ",
"                                                                                                                                            ",
"                                                                                                                                            "
};
