/* XPM */
static char *c2f33ebd7ac9408f94321424433de597Ps8EwB5tiS2soTi5[] = {
/* columns rows colors chars-per-pixel */
"70 70 185 2 ",
"   c #000000",
".  c #060806",
"X  c #0A0905",
"o  c #040709",
"O  c #06090B",
"+  c #0B0B0B",
"@  c #120F0C",
"#  c #0F100D",
"$  c #13120D",
"%  c #1A140D",
"&  c #0C0E12",
"*  c #071017",
"=  c #0D1011",
"-  c #121313",
";  c #1A1B16",
":  c #141619",
">  c #14191C",
",  c #1C1C1C",
"<  c #211D15",
"1  c #2B2216",
"2  c #22231E",
"3  c #3E331B",
"4  c #171D20",
"5  c #1B1E22",
"6  c #1C2225",
"7  c #17202E",
"8  c #1C232A",
"9  c #222323",
"0  c #292A26",
"q  c #22252A",
"w  c #24292C",
"e  c #2A2A2A",
"r  c #382F21",
"t  c #2F302A",
"y  c #3A3222",
"u  c #30312B",
"i  c #3C372B",
"p  c #292E38",
"a  c #2C3237",
"s  c #2D353C",
"d  c #343434",
"f  c #3E3A30",
"g  c #33363B",
"h  c #353A3E",
"j  c #3C3C3B",
"k  c #443B2C",
"l  c #473E30",
"z  c #3F403B",
"x  c #4F4637",
"c  c #514831",
"v  c #5B523B",
"b  c #2E3C46",
"n  c #353A42",
"m  c #383E44",
"M  c #383F49",
"N  c #3C4041",
"B  c #38434B",
"V  c #3E4954",
"C  c #444443",
"Z  c #484844",
"A  c #4D4D4C",
"S  c #4F504F",
"D  c #585142",
"F  c #444E54",
"G  c #4A4D58",
"H  c #524F51",
"J  c #4F5050",
"K  c #45535C",
"L  c #4A545E",
"P  c #565656",
"I  c #575B5E",
"U  c #5D5D5D",
"Y  c #475765",
"T  c #4A5363",
"R  c #4E5B64",
"E  c #4F5C6A",
"W  c #555A62",
"Q  c #545D71",
"!  c #5F6261",
"~  c #53626C",
"^  c #59656D",
"/  c #546372",
"(  c #5A6477",
")  c #5C6B75",
"_  c #5E6779",
"`  c #5D6A7B",
"'  c #626263",
"]  c #666867",
"[  c #6B6C6D",
"{  c #616A7C",
"}  c #69737E",
"|  c #757575",
" . c #7B7B7C",
".. c #7F807F",
"X. c #637481",
"o. c #647886",
"O. c #6B7A83",
"+. c #6A7E8A",
"@. c #6B7A91",
"#. c #6D808C",
"$. c #7C848C",
"%. c #6E8291",
"&. c #728395",
"*. c #7B8C96",
"=. c #778B99",
"-. c #7C919D",
";. c #7D94A4",
":. c #7D93A8",
">. c #848485",
",. c #858689",
"<. c #8A8A8A",
"1. c #838D93",
"2. c #8D8F91",
"3. c #85929D",
"4. c #929394",
"5. c #95999B",
"6. c #9A9B9B",
"7. c #8090A0",
"8. c #869AA7",
"9. c #8B9AA3",
"0. c #839DAD",
"q. c #899FAC",
"w. c #899FB1",
"e. c #8DA0AF",
"r. c #9AA3A9",
"t. c #87A1B5",
"y. c #8AA2B2",
"u. c #8EA7B8",
"i. c #95AAB7",
"p. c #9CACB5",
"a. c #94ACBB",
"s. c #99AEBB",
"d. c #96B1BF",
"f. c #99B1BF",
"g. c #A4A4A4",
"h. c #A8A9AA",
"j. c #B5B5B5",
"k. c #B3B9BD",
"l. c #BCBCBB",
"z. c #96B2C3",
"x. c #9BB5C5",
"c. c #9FB7CA",
"v. c #9BBBCA",
"b. c #9EBACB",
"n. c #9FBDD0",
"m. c #A1B9C7",
"M. c #AABAC7",
"N. c #A1BBCC",
"B. c #ABC0CE",
"V. c #B1C2CC",
"C. c #ABC1D3",
"Z. c #B3C5D2",
"A. c #B5C8D4",
"S. c #BBCBD4",
"D. c #BBCBD9",
"F. c #C3C3C3",
"G. c #C1C7CC",
"H. c #C5CACC",
"J. c #CBCBCB",
"K. c #D2D2CF",
"L. c #C1CCD4",
"P. c #C5D4DD",
"I. c #CAD4DC",
"U. c #D3D4D4",
"Y. c #D6D6D6",
"T. c #D5D8DB",
"R. c #DADADA",
"E. c #DCDCDC",
"W. c #DDDDDD",
"Q. c #E0DFDF",
"!. c #D2DDE3",
"~. c #DDDFE2",
"^. c #DDE2E3",
"/. c #E0E1E1",
"(. c #E2E2E2",
"). c gray89",
"_. c #E3E4E3",
"`. c #E6E5E3",
"'. c #E3E4E4",
"]. c #E4E4E4",
"[. c #E5E5E5",
"{. c #E6E5E4",
"}. c #E5E5E6",
"|. c #E8E5E4",
" X c #E1E7E9",
/* pixels */
"                                                                                                                                            ",
"                                                                                                                                            ",
"                                                                                                                                            ",
"                                                                            .           .                                                   ",
"                                                                C ! [ j._.'._.'.].].R.4.' U +                                               ",
"                                                          + ' )._.[.[.[.[.[.[.[.[.[.[.[.[.[.[. .+                                           ",
"                                                        - Y.[.[.[.[.[.[.[.[.[.[.[.[.[.[.[.[.[.[.Y..                                         ",
"                                                        F.).[.[.[.[.[.[.[.[.[.[.[.[.[.[.[.[.[.[.'.p.o                                       ",
"                                                      <.].[.[.[.[.[.[.[.[.[.[.[.[.[.[.[.[.[.[.[.[.P.x.-                                     ",
"                                                    d Q.[.[.[.[.[.[.[.[.[.[.[.[.[.[.[.[.[.[.[.[.[.P.n.E                                     ",
"                                                    2.].[.[.[.[.[.[.[.[.[.[.[._.[.[.[.[.[.[.[.[.[.I.b.c.=                                   ",
"                                                  X ].[.[.[.|.].[.[.[.[.[.[.[. X[.[.[.[.[.[.[.[.).G.b.b.=..                                 ",
"                                                  4.J. .<.].].].[.[.[.[.[.[.4.x , [ Y.[.[.[.[.[.[.G.N.b.z.-                                 ",
"                                                . 6.X , - , Q.].[.[.[.[.[.] + u t 2 - U.[.[.[.[.].k.N.b.b.4                                 ",
"                                                & A ; t e $ h.[.[.[.[.[.4.  t u u u 0 S ).[.[.[.).k.b.b.b.6                                 ",
"                                                : j u t u 0 >.[.[.[.[.[.,.0 u u u Z C + ).[.[.[.|.k.b.b.b.V                                 ",
"                                                l.9 u u A A Z [.[.[.[.[.,.t e x P P P : [.[.[.[.[.h.b.b.N.9.                                ",
"                                                ].j u j P A <.].[.[.[.[.,., t P P P P & ].[.[.[.|.5.b.N.b.m.                                ",
"                                              . ].H # P P + h.].[.[.[.[.E.  C P P P 0 g.[.[.[.[.[.<.b.b.b.b.                                ",
"                                              + _.R.: , , d W.[.[.[.[.[.].j.: , e - P E.[.[.[.[.[.<.b.b.b.b.:                               ",
"                                              j [.[.R.>.6.'.[.[.[.[.[.[.[.[.W...| j.[.[.[.[.[.[.[.j.s.b.b.b.~                               ",
"                                              P [.[.[.[.[.[.[.'.[.[.[.[.[.].].[.].[.].[.[.[.[.[.[.[.a b.b.b./                               ",
"                                              U ].)._.[.[.).)._._.).].).).).).).].].).)._.[.[.[.[.[.. b.b.b.x.                              ",
"                                              ' U.e U Y.0 e e e e e e 0 0 e 0 U ].,.e e e E.[.[.[.[.j.a.b.b.b.O                             ",
"                                              U R., - X 2 u u j P P P U P P P : H.5 P P e ).[.[.].].).#.b.b.b.e.                            ",
"                                              C R.+ ,   u u u l P P P P P P P x J u P Z H ].[.[.[.]._.3.b.b.b.x.q                           ",
"                                              # [.A 2 2 u u u u P P P P P P P G + P P : 6.[.[.[.[.[.[.! b.b.b.b.)                           ",
"                                              . [.g.+ u u u u u P P P P P P P P Z P A C [.[.[.[.[.[.[.K.e.b.b.b.b.F                         ",
"                                                ~.[.U 2 u u u u j P P P P P P U P z - J.[.[.[.[.[.[.[.[.1.N.N.b.b.y.+                       ",
"                                                9 [.J.9 , u u u t A P P P P P P z e _.'.[.[.[.[.[.[._.^.F.z.b.b.b.N.a.=                     ",
"                                                + W.[.[.A X 0 0 t u P P H D e + ] [.[.[.[.[.[.[.[.[.].B.C.#.b.b.i.b.v.X..                   ",
"                                                . 6.[.[.[.F.| . . + + + + ' V.Y.[.[.[.[.[.[.[.[. X^.[.A.b.b.v.x.w 5 3.b.:.:                 ",
"                                                  d |.).[.[.[.[.].].).[.[.[.[.[.[.[.[.[.[.[.].].|.A.D.M.v.b.b.b.n     . h N .               ",
"                                                    4.[.[.[.[.[.].].[.[.[.[.[.[.[.[.[.[.[.[.].].|.P.N.N.a o.z.v.b.>                         ",
"                                                    5 S.'.[.[.[.[.' R.].[.].[.[.[.[.[.[.W.'.].].[.'.n.N.*.. . h e.#..                       ",
"                                                      6 D.).[.[.].~ ^ F.].].~.|.|.[.[.|.F.q 2.].[.[.^.N.x.>       #                         ",
"                                                        O.Z.^.[.[.` b.$.4.^.s.$._.[.~.Z.>.5.{ +.! U.|.P.c.q.                                ",
"                                                .         %.C.T.[.o.b.:.w.L.N.0.>._.'.n.v.V L N.b.%.r.h.Z.v.O.                              ",
"          X   o                             X Y.[._.9     + ;.b.^.;.b.-.g z.b.N.z.! l.s.b.s O 8.z.N.b.b.u.z.b.8                             ",
"        X 3 c v   q . o               - { o o 5 d U.W.,     o =.v.v.b.m.  + =.;.: 0 I . K m..   = B c.b.N.b.b.b.a o                         ",
"            + $ o p 9 o r k f $        .^.d.> s +.w &         + K b.b.b.    O 2.g.[.'.7.> x.:         e V a.b.b.x.m                         ",
"                X g 5 o X % < 1 x x y % . [ . R b.g x.>           B z.v.h U _.[.[.[.[.!.. a.K               . L ) ^ =                       ",
"            o 6 : n - o               . 6.H.9 p.N.q M.> +           . +.~ )._.[.[.[.'.P.) ^ q.                      .   .                   ",
"            , m n n n g X o             [.l.+ [.W.-  X5 k v D <   o .   o <.[.[.[.[.).Z.+.* N.p                                             ",
"            T _ ` 8 n g                 j.j g.'.j 4.l..   @ @ % y k y i i + [.[.[.).~.b.R   . 6 .                                           ",
"          o M.@.` 5 n n                 .     >   + -           o     $ @ J [.'.].[.C.c.O                                                   ",
"            M.y.t.7 B g                                                   !.^.'.[.L.b.K ; 2                                                 ",
"            1.y.t.5 ( W .                                               o v.v.Q P.^ : o   .                                                 ",
"            4 w.w.Y ( Q o                                                 a s 8 p                                                           ",
"          o o %.X.&.Q Q o                                                       o                                                           ",
"            o =.( ( M V .                                                                                                                   ",
"              O.` X.T g =                                                                                                                   ",
"              4 Z.:.o.m > o                                                                                                                 ",
"              o } u.t.Y G                                                                                                                   ",
"                = 7.0.:.E M                                                                                                                 ",
"                  o { @.b ( +                                                                                                               ",
"                    & ( _ n G o                                                                                                             ",
"                    o . F Q 8 5 .                                                                                                           ",
"                        o > T s -                                                                                                           ",
"                            o > T =                                                                                                         ",
"                                . O .                                                                                                       ",
"                                    o   .                                                                                                   ",
"                                                                                                                                            ",
"                                                                                                                                            ",
"                                                                                                                                            ",
"                                                                                                                                            ",
"                                                                                                                                            ",
"                                                                                                                                            ",
"                                                                                                                                            ",
"                                                                                                                                            "
};
