/* XPM */
static char *VFRmMzhseSslMjgxJTI5X3Bob3RvLXJlc2l6ZXIucnU_[] = {
/* columns rows colors chars-per-pixel */
"70 70 228 2 ",
"   c #000000",
".  c #01040C",
"X  c #090A0E",
"o  c #010612",
"O  c #020814",
"+  c #080911",
"@  c #01061B",
"#  c #020A1E",
"$  c #0A0E1A",
"%  c #0F111A",
"&  c #13151A",
"*  c #030D23",
"=  c #030E2A",
"-  c #05122C",
";  c #09152B",
":  c #161B27",
">  c #0B1634",
",  c #05153B",
"<  c #091A3B",
"1  c #0D2039",
"2  c #1B253F",
"3  c #2D2E32",
"4  c #262B39",
"5  c #061A44",
"6  c #071B45",
"7  c #081D49",
"8  c #071D53",
"9  c #0B234F",
"0  c #152748",
"q  c #0A2355",
"w  c #07245B",
"e  c #0A245B",
"r  c #122550",
"t  c #18395D",
"y  c #2E3444",
"u  c #26314C",
"i  c #343E56",
"p  c #0C2A63",
"a  c #0B2C6B",
"s  c #16346D",
"d  c #092A76",
"f  c #102F78",
"g  c #0E3477",
"h  c #0E337C",
"j  c #11357C",
"k  c #133878",
"l  c #293C6A",
"z  c #1C426C",
"x  c #1D4879",
"c  c #214E7E",
"v  c #324C75",
"b  c #48484A",
"n  c #58595E",
"m  c #465169",
"M  c #46516D",
"N  c #51576B",
"B  c #5A6176",
"V  c #626876",
"C  c #143980",
"Z  c #1B3D82",
"A  c #203F84",
"S  c #194583",
"D  c #1D4184",
"F  c #1C4389",
"G  c #1C4B8C",
"H  c #1E5798",
"J  c #224486",
"K  c #284887",
"L  c #2B4A8A",
"P  c #324F8C",
"I  c #29568D",
"U  c #33528E",
"Y  c #3A5489",
"T  c #304F94",
"R  c #255C9C",
"E  c #2B5E9E",
"W  c #335290",
"Q  c #3B5793",
"!  c #3A5C97",
"~  c #2E609F",
"^  c #37639B",
"/  c #225CA1",
"(  c #2E69A7",
")  c #316EA5",
"_  c #3C6AA2",
"`  c #3977AD",
"'  c #387DB3",
"]  c #4B5C83",
"[  c #455D96",
"{  c #496597",
"}  c #46629A",
"|  c #4A639B",
" . c #596A91",
".. c #526A9E",
"X. c #56689C",
"o. c #6A7287",
"O. c #6A7390",
"+. c #4967A1",
"@. c #5166A1",
"#. c #546DA1",
"$. c #4774AA",
"%. c #5A72A5",
"&. c #5972A7",
"*. c #487DB0",
"=. c #507EB0",
"-. c #6275A4",
";. c #6B7CA6",
":. c #647AAA",
">. c #757EA8",
",. c #3C84B9",
"<. c #7C808F",
"1. c #7D879D",
"2. c #4985B8",
"3. c #5C89B9",
"4. c #6D82AE",
"5. c #7283AD",
"6. c #7F8DAD",
"7. c #6C87B2",
"8. c #7286B1",
"9. c #7589B2",
"0. c #7C8CB3",
"q. c #7B8DB9",
"w. c #7D90BA",
"e. c #7B95B9",
"r. c #3E8CC2",
"t. c #418DC2",
"y. c #4893C5",
"u. c #479ACC",
"i. c #4A9BCD",
"p. c #5798C5",
"a. c #6C95C0",
"s. c #4CA3D4",
"d. c #55B0DE",
"f. c #67A2CC",
"g. c #78A4C8",
"h. c #68AED8",
"j. c #7AB7DB",
"k. c #5CBBE7",
"l. c #5EC3EC",
"z. c #5CC6F0",
"x. c #64C6EF",
"c. c #7AC7E7",
"v. c #62C7F1",
"b. c #62C8F1",
"n. c #6ACAF1",
"m. c #77CDF1",
"M. c #848DA8",
"N. c #8A95A9",
"B. c #8491B5",
"V. c #8595BA",
"C. c #8D9CBF",
"Z. c #939CB3",
"A. c #8EA0BF",
"S. c #97A0BB",
"D. c #9BA5BE",
"F. c #A8ABB7",
"G. c #8699C3",
"H. c #8C9DC1",
"J. c #939EC1",
"K. c #89A3C5",
"L. c #94A3C3",
"P. c #99A6C6",
"I. c #9CA9C6",
"U. c #98A5C8",
"Y. c #9DABC9",
"T. c #81B5D5",
"R. c #9AB3D0",
"E. c #A1ACC6",
"W. c #A4AFC8",
"Q. c #A5B4CD",
"!. c #AAB5CD",
"~. c #AAB8CF",
"^. c #B7BDC9",
"/. c #A7B8D2",
"(. c #ACBAD2",
"). c #B3BCD3",
"_. c #90C3DC",
"`. c #BDC1CB",
"'. c #A9C3DB",
"]. c #BBC2D6",
"[. c #B6C4D8",
"{. c #BEC6D9",
"}. c #89C9E7",
"|. c #9ACAE4",
" X c #8FD5F2",
".X c #98D9F3",
"XX c #ADCFE4",
"oX c #B6D9EB",
"OX c #A9DDF2",
"+X c #A7E0F7",
"@X c #BBE5F5",
"#X c #C8C9CE",
"$X c #C7CBDA",
"%X c #C3CBDC",
"&X c #CCD2DF",
"*X c #D5D5D4",
"=X c #C6CEE0",
"-X c #CCD4E3",
";X c #C4D8E7",
":X c #D1D7E3",
">X c #D4DAE5",
",X c #D9DDE7",
"<X c #D1D7EA",
"1X c #D5DCE8",
"2X c #D9DEEA",
"3X c #DEE0E6",
"4X c #DDE2EB",
"5X c #C6E8F6",
"6X c #CAEBF7",
"7X c #CCEDF9",
"8X c #D6ECF7",
"9X c #D7F0FA",
"0X c #DCF2FB",
"qX c #E2E6EE",
"wX c #E6EAEF",
"eX c #EAECEE",
"rX c #EDF1EE",
"tX c #E0E6F1",
"yX c #E6E9F1",
"uX c #EBEDF2",
"iX c #EEF2F5",
"pX c #E4F5FB",
"aX c #E9F5F8",
"sX c #F3F4F6",
"dX c #F4F5F9",
"fX c #F7F8F9",
"gX c #F5FAFC",
"hX c #FFFFFF",
/* pixels */
"                                              .   8 j S k k 2 .                                                                             ",
"                                          . O k ~ c..XgXhXhXfX-.3 X                                                                         ",
"                                          < I j.5XgXhXhXhXhXhXhX*XN +                                                                       ",
"                                      . < ` }.aXhXhXhXhXhXhXhXhXhX2XB .                                                                     ",
"                                    . < ' T.aXhXhXhXhXhXhXhXhXhXhXhX,Xm .                                                                   ",
"                                    * ^ 3.4XhXhXhXhXhXhXhXhXhXhXhXhXhX$X4                                                                   ",
"                                    c ` qXhXhXhXhXhXhXhXhXhXhXhXhXhXhXfX1.X                                                                 ",
"                                  = *./.hXhXhXhXhXhXhXhXhXhXhXhXhXhXhXhX3X2                                                                 ",
"                                  S f.%XhXhXhXhXhXhXhXhXhXhXhXhXhXhXhXhXhX6..                                                               ",
"                                # i.R.iXhXhXhXhXhXhXhXhXhXhXhXhXhXhXhXhXhXqX2                                                               ",
"                                9 m.5.hXhXhXhXhXhXhXhXhXhXhXhXhXhXgX2XuXhXhXO..                                                             ",
"                              . c OX8.hXhXhXhXhXhXhXhXhXhXhXhXhXhXwX:.V.fXhX^.$                                                             ",
"                              @ ' [.C.hXhXhXhXhXhXhXhXhXV.V.hXhXhXyXQ -.hXhX4Xy                                                             ",
"                              * y.6.Q.hXhXhXhXhXhXhXhXhX[ K uXhXhXhX-X4XhXhXsXB .                                                           ",
"                              ; i.Q {.hXhXhXhXhXhXhXhXhX4XX.gXhXhXhXhXhXhXhXgX1..                                                           ",
"                              1 h.D 4XhXhXhXhXhXhXhXhXhXhXhXhXhXhXhXhXhXhXhXhXD.X                                                           ",
"                              0 }.D sXhXhXhXhXhXhXhXhXhXhXhXhXhXgX%X>X>X5.C.hX$X&                                                           ",
"                              t |.} hXhXhXhXhXhXhXhXhXhX-X{.%XsX).} ..&.:XsXhX4X&                                                           ",
"                              z oX>XhXhXhXhXhXhXhXhXhXfXG.-.;.2Xw.hXhXhXhXhXhXiX:     . . .                                                 ",
"                              z @XhXhXhXhXhXhXhXhXhXhXfXhXhXhXgXhXhXhXhXhXhXhXfXn : i o.<.V %                                               ",
"                              x 5XhXhXhXhXhXhXhXhXhXhXhXhXhXhXhXhXhXhXhXhXhXhXhX#X] $XsXfXeXZ..                                             ",
"                              c 5XhXhXhXhXhXhXhXhXhXhXhXhXhXhXfX(.[ | iXfXqX!.4.X.2.OXXXhXhXfXN                                             ",
"                              c 5XhXhXhXhXhXhXhXhXhXhXhXhXsX;.L K >XyXhXhXgXfXuXyX).$.2.hXhXfXF..                                           ",
"                              I 6XhXhXhXhXhXhXhXhXhXhXhXX.F _.hXhXhXhXhXhXhXhXhXhXhX:Xp.hXhXhX#X$                                           ",
"                              I 7XhXhXhXhXhXhXhXhXhX2Xe.i.@.hXhXhXhXhXhXhXhXhXhXhXhXqX2.gXhXhX$X:                                           ",
"                              ~ 8XhXhXhXhXhXhXhXhX&X( s.$.hXhXhXhXhXhXhXhXhXhXhXhXhXhX7.;XgXhX^.%                                           ",
"                              ^ 9XhXhXhXhX2XP.qXgX:.r.! 4XhXhXhXhXhXhXhXhXhXhXhXhXhXhXqXT.R.'.N.O                                           ",
"                              ^ 0XhXhXhXW.B.H.qXhX<XG.P.hXhXhXhXhXhXhXhXhXhXhXhXhXhXhXhXqXQ./.).i                                           ",
"                              ^ 0XhXhXJ.).&XhXhXhXhXhXI.2XhXhXhXhXhXhXhXhXhXhXhXhXhXhXhXhXhXhXhXF.o                                         ",
"                              _ 0XhX{.W.fXhXhXhXhXhXhXL.%XhXhXhXhXhXhXhXhXhXhXhXhXhXhXhXhXhXhXhXgX .                                        ",
"                              ^ 0XfX0.fXhXhXhXhXhXhXgXa.=XhXhXhXhXhXhXhXhXhXhXhXhXhXhXhXhXhXhXhXhXuX0                                       ",
"                            . $.pXB.hXhXhXhXhXhXhXhXaXT.sXhXhXhXhXhXhXhXhXhXhXhXhXhXhXhXhXhXhXhXhXhXN.o                                     ",
"                            . $.pXhXgXpXhXhXhXhXhXpXs.C.hXhXhXhXhXhXhXhXhXhXhXhXhXhXhXhXhXhXhXhXhXhX-Xu                                     ",
"                          . @ =.pXhXhXj.6X7X0X7X7Xh.:.hXhXhXhXhXhXhXhXhXhXhXhXhXhXhXhXhX%X%XgXhXhXhXfX .                                    ",
"                            * 3.gXhXhX5.r.t.p.,.}.G.hXhXhXhXhXhXhXhXhXhXhXhXhXhXhXyXL.C.B.0.L.).hXhXhX).o                                   ",
"                            , f.gXhXhX8.t.r.p.g 2XgXhXhXhXhXhXhXhXhXhXhXhXhXhXhXhX=X#.L.dX4XU.:.$XhXhXsXr                                   ",
"                            e j.gXhXhX&.x.z.@X..hXhXhXhXhXuX..@.-.hXhXhXhX7.hXhXhX2X#.sXhXhXhX%X-.fXhXhX;..                                 ",
"                            a }.gXgX:X_ v.v.XX4XhXhXhXhX>.gX:X:X).U.hXhXhXT tXhXhXfX5.yXhXhXhXfX:.2XhXhX3X=                                 ",
"                          . h  XhXhX).t.v.v.3.hXhXhXhX!.$XhXhXhXhXB.1XhXhXL +.hXhXhX9.eXhXhXhXhX&X;.hXhXhX9                                 ",
"                          O S .XhXhX(.i.v.x.R hXhXhXhX].4XhXhXhXhXH.>XhXhX$XQ hXhXhXq.A.hXhXhXhXfXU hXhXhXM                                 ",
"                          = ) OXhXhX!.u.v.b.R gXhXhXhXU.=XhXhXhXhXH.>XhXhXhXP 1XhXhXC.d hXhXhXhXiX[ hXhXhXM.o                               ",
"                          5 i.@XhXhXY.u.b.b.R hXhXhXhXU.=XhXhXhXfX5.2XhXhXhXf H.hXhXsXK hXhXhXhXQ.E.hXhXhXW.*                               ",
"                          q k.pXhXhXL.i.v.x.R hXhXhXhX%XC.hXhXhXqX&.uXhXhXhXK L.hXhXhXJ eXhXhXqX[ sXhXhXhX).;                               ",
"                        o x x.fXhXhXC.u.v.n.( gXhXhXhXfX| hXhX1X7.-XhXhXhXhXU.K.hXhXhXF 6.hX5.X.4.hXhXhXhX{.1                               ",
"                        # ` .XhXhXhXD.u.v.n.~ hXhXhXhXhX} rX5.! !.hXhXhXhXhX-XW uXhXhX[ k #.f { wXhXhXhXhX:Xu                               ",
"                        5 u.pXhXhXhXY.u.b.n.E hXhXhXhXhX} T 7.8.U S.hXhXhXhX-Xh qXhXhX4XT ].2XyXhXhXhXhXhXwX] .                             ",
"                        S |.hXhXhXhXQ.u.b.z.~ hXhXhXhXhXQ <XhXhX1Xj ,XhXhXhX-Xd qXhXhXhX} fXhXhXhXhXhXhXhXsX{                               ",
"                      * $.0XhXhXgXhX~.u.b.z.~ fXhXhXhXhXV.k hXhXhXA.d hXhXhXuX..:XhXhXhXh Y.hXhXhXhXhXhXhXhX&.                              ",
"                    . k |.hXhXhXgXhX(.u.v.v./ hXhXhXhXhXsXL gXhXhXqXW &XhXhXhXq.L hXhXhXj Y.hXhXhXhXhXhXhXhX:..                             ",
"                  . 9 *.sXhXhXeXyXhX~.i.b.v.H hXhXhXhXhXhXJ wXhXhXhXW P hXhXhXw.h hXhXhXU I.hXhXhXhXhXhXhXhX8.@                             ",
"                  * K oXhXhXhX;X;XhX/.u.b.b.R fXhXhXhXhXhXj L.hXhXhXw.Q hXhXhXw.h hXhXhXY.#.gXhXhXhXhXhXhXhXH.,                             ",
"                . s g.gXhXhXhXe.8XhX(.i.b.b.7.'.hXhXhXhXhXd w.hXhXhXiXZ ).hXhX-XJ fXhXhX%XA sXhXhXhXhXhXhXhX).w                             ",
"                7 ) 5XhXhXhXhX&.fXhX>X=.b.b.XXQ hXhXhXhXhX:.e.hXhXhXhXj C.hXhXhXT fXhXhXiX%XhXhXhXhXhXhXhXhX>Xa                             ",
"              # j _.fXhXhXhXX.}.hXhXgX#.b.b.7XC hXhXhXhXhX,X0.hXhXhXhX{.S.hXhXhXwXhXhXhXhXhXhXhXhXhXhXhXhXhXuXj                             ",
"              5 ` 0XhXhXhXiXD 5XhXhXhX&.b.b.6XD hXhXhXhXhXhXhXhXhXhXhXhXhXhXhXhXhXhXhXhXhXhXhXhXhXhXhXhXhXhXgXj o                           ",
"            . p j.hXhXhXsX:.k.hXhXhXhX&.v.b.+XD hXhXhXhXhXhXhXhXhXhXhXhXhXhXhXhXhXhXhXhXhXhXhXhXhXhXhXhXhXhXhXZ *                           ",
"            o g '.fXhXhXQ.^ .XhXhXhXhX&.l.b.m.D fXhXhXhXhXhXhXhXhXhXhXhXhXhXhXhXhXhXhXhXhXhXhXhXhXhXhXhXhXhXhXL ,                           ",
"            o p %.yXyX!.Q i.gXhXhXhX$X&.y.b.b.C {.hXhXhXhXhXhXhXhXhXhXhXhXhXhXhXhXhXhXhXhXhXhXhXhXhXhXhXhXhXhX} 7                           ",
"            . 5 j :.:.J F i.gXgXhXhX;.0.G b.z.U 0.hXhXhXhXhXhXhXhXhXhXhXhXhXhXhXhXhXhXhXhXhXhXhXhXhXhXhXhXhXhX5.9                           ",
"              . , q 8 - 5 I 5XhXhX>X).].C b.b.G.4.hXhXhXhXhXhXhXhXhXhXhXhXhXhXhXhXhXhXhXhXhXhXhXhXhXhXhXhXhXhXI.q .                         ",
"                . o .   . e c.hXhXU Y y C b.n.XX7.gXhXhXhXhXhXhXhXhXhXhXhXhXhXhXhXhXhXhXhXhXhXhXhXhXhXhXhXhXhX-Xp o                         ",
"                          , S uX:.w .   C k.b.c.@.iXhXhXhXhXhXhXhXhXhXhXhXhXhXhXhXhXhXhXhXhXhXhXhXhXhXhXhXhXhXeXg #                         ",
"                            8 a #       a r.b.k.k -XhXhXhXhXhXhXhXhXhXhXhXhXhXhXhXhXhXhXhXhXhXhXhXhXhXhXhXhXhXfXh *                         ",
"                            . o O O O o w ) b.l.C {.hXhXhXhXhXhXhXhXhXhXhXhXhXhXhXhXhXhXhXhXhXhXhXhXhXhXhXhXhXgXh *                         ",
"                  .   . O o @ 6 q q q 6 w ( v.x.R W.hXhXhXhXhXhXhXhXhXhXhXeXfXhXhXhXhXhXhXhXhXhXhX-X&XfXyX^.).{.j - # = * # . .             ",
"                  . . @ - @           . . ( v.v.,.} hXhXhXhXhXhXhXhXhXgX`.o.M.-XhXhXhXhXfX^.D.D.D.i l F.V , , 0 e 6 7 7 6 , * O .           ",
"                                          R k.b.t.C hXhXhXhXhXhXhXhXhX#Xy . # M 4XgXsXhXO.3 - - ;   . 4         O # o       . O             ",
"                                        # g ' b.d.G 5.P.sXhXhXhXhXhXeX3       . m B b V $                                                   ",
"                                        . o ; G J q > s Q ;.v i :X*Xb           . .   +                                                     ",
"                                              . .     . . .     X X                                                                         "
};
