/* XPM */
static char *d5f6a609516649dc85fd6e382888e165cM289ly5hRI8ZSUx[] = {
/* columns rows colors chars-per-pixel */
"70 70 101 2 ",
"   c #000000",
".  c #090704",
"X  c #070806",
"o  c #090A07",
"O  c #0D0D0C",
"+  c #120C06",
"@  c #0F1406",
"#  c #12170B",
"$  c #151B0B",
"%  c #191A0A",
"&  c #141414",
"*  c #181915",
"=  c #1C1C1B",
"-  c #201A12",
";  c #291E11",
":  c #1D240F",
">  c #232D0F",
",  c #222B12",
"<  c #342413",
"1  c #382613",
"2  c #3D2D1D",
"3  c #263112",
"4  c #293613",
"5  c #2D3A16",
"6  c #2F3B1A",
"7  c #242424",
"8  c #2C2C2C",
"9  c #30302F",
"0  c #353535",
"q  c #383837",
"w  c #393939",
"e  c #442C15",
"r  c #55371A",
"t  c #563D23",
"y  c #583C20",
"u  c #344516",
"i  c #394D16",
"p  c #394A1B",
"a  c #3E511B",
"s  c #3D4C24",
"d  c #405719",
"f  c #455B1E",
"g  c #4E5D1D",
"h  c #65421F",
"j  c #5E4021",
"k  c #485B24",
"l  c #694522",
"z  c #6D4823",
"x  c #764D24",
"c  c #735232",
"v  c #4C6126",
"b  c #567321",
"n  c #5E7F24",
"m  c #5A742C",
"M  c #5F7D2B",
"N  c #444444",
"B  c #494947",
"V  c #4C4C4B",
"C  c #50504F",
"Z  c #555554",
"A  c #5C5C5B",
"S  c #61615F",
"D  c #616161",
"F  c #6D6D6D",
"G  c #70706F",
"H  c #757575",
"J  c #787877",
"K  c gray47",
"L  c gray48",
"P  c #7B7B7B",
"I  c gray49",
"U  c gray50",
"Y  c #608225",
"T  c #628328",
"R  c #65862B",
"E  c #668829",
"W  c #6E8F2A",
"Q  c #698C2C",
"!  c #6E932D",
"~  c #6D912E",
"^  c #6F942C",
"/  c #70982B",
"(  c #779F2F",
")  c #648032",
"_  c #698735",
"`  c #759B30",
"'  c #759A32",
"]  c #7AA232",
"[  c #7BA432",
"{  c #7EAA31",
"}  c #80AD31",
"|  c #80A937",
" . c #83B132",
".. c #80807F",
"X. c #808080",
"o. c #818181",
"O. c gray51",
"+. c #838383",
"@. c #848484",
"#. c gray52",
"$. c #868686",
/* pixels */
"                                                                                                                                            ",
"                                                                                                                                            ",
"                                                                                                                                            ",
"                                                                                                                                            ",
"                                                      & 7 7 8 B S L X.X.I D V q 7 7 O                                                       ",
"                                                  7 V A I X.X.X...X.X.X.X.X.X...X.I D V 7                                                   ",
"                                                  I X.X.X.X.X.@.N B I X.X.X.X.X.X.X.X.X.L H 8                                               ",
"                                          = A w   D X.X.X.H N   X w L X.X.X.X.X.X.X.X.X...I X.A =                                           ",
"                                        0 X.X.L   = L A B O X w B I X.X.X.X.X.X.X.X.X.X.X.X.X.X.X.0 X                                       ",
"                                    o N I X.X.X.N X 7 O X w D X.X.X.X.X.X.X.X.X.X.X.X.X.X.X.X.X.X.I N X                                     ",
"                                    0 X.X.X.X.X.X.8       X = = = = o   N X.X.X.X.X.X.X.X.X.X.X.X.X.X.w                                     ",
"                                  7 X.X.X.X.X.X.X.X.A 7   O = = = 7 7 7   N X.I X.X.X.X.X.X.X.X.X.X.X.X.7                                   ",
"                                * X.X.X.X.X.X.X.X.H B 0 X N L H H J X.I 7 X w H X.@.X.X.X.X.X.X.X.X.X.X.@.=                                 ",
"                                A X.X.X.X.X.H 8 & O X   = I I X.X.I X.X.L 7   & & & * B X.X.X.X.X.X.X.X.X.Z                                 ",
"                              * F X.X.X.X.X.H 8 & *   & X.X.X.X.X.X.X.X.X.X.&   O & & Z X.X.X.X.X.X.X.X.X.F &                               ",
"                              w X.X.X.X.X.X.X.X.X.0 = L X.X.X.X.X.X.X.X.X.X.L * 7 L X.X.X.X.X.X.X.X.X.X.X.@.w                               ",
"                              w X.X.X.X.X.X.X.X.X.F F X.X.X.X.X.X.X.X.X.X.X.X.Z   0 X.X.X.X.X.X.X.X.X.X.X.X.q                               ",
"                              w X.X.X.X.X.X.X.X.X.X.X.X.X.X.X.X.X.X.X.X.X.X.X.X.C G X.X.X.X.X.X.X.X.X.X.X.X.q                               ",
"                              w X.X.X.X.X.X.X.X.X.X.X.X.X.X.X.X.X.X.X.X.X.X.X.X.X.X.X.X.X.X.X.X.X.X.X.X.X.X.q                               ",
"                              w X.X.X.X.X.X.X.X.X.X.X.X.X.X.X.X.X.X.X.X.X.X.X.X.X.X.X.X.X.X.X.X.X.X.X.X.X.X.q                               ",
"                              w X.X.X.X.X.X.X.X.X.X.X.X.X.X.X.X.X.X.X.X.X.X.X.X.X.X.X.X.X.X.X.X.X.X.X.X.X.X.q                               ",
"                              w X.X.X.X.X.X.X.X.X.X.X.X.X.X.X.X.X.X.X.X.X.X.X.X.X.X.X.X.X.X.X.X.X.X.X.X.X.X.q                               ",
"                              8 L X.X.X.X.X.X.X.X.X.X.X.X.X.X.X.X.X.X.X.X.X.X.X.X.X.X.X.X.X.X.X.X.X.X.X.X.X.q                               ",
"                              X 7 9 X.X.X.X.X.X.X.X.X.X.X.X.X.X.X.X.X.X.X.X.X.X.X.X.X.X.X.X.X.X.X.X.X.X.X.X.q                               ",
"                                    7 X.X.X.X.X.X.X.X.X.X.X.X.X.X.X.X.X.X.X.X.X.@.X.X.X.X.X.X.X.X.X.X.X.X.X.q                               ",
"                                  7 I X.X.L w     = Z I X.X.X.X.X.V o @.X.X.X.X.X.&     7 A X.X.X.X.X.X.X.X.q                               ",
"                              & N X.X.X.X.L 7 = V 7   0 @.X.X.X.X.w   $.X.X.X.X.@.& O B =   B P X.X.X.X.X.X.q                               ",
"                              0 X.X.X.X.I L 7 9 X.H 0   N X.X.X.X.w   @.X.X.X.X.X.& & X.H w o C X.X.X.X.X.X.q                               ",
"                              w X.X.X.X.X.L 7 8 X.X.X.& & X.X.X.X.w   @.X.X.X.X.@.& & X.X.X.X N I X.X.X.X.X.q                               ",
"                              q X.X.X.X...J 7 8 X.X.X.& & X.X.X.X.w   $.X.X.X.X.@.& & X.X.X.7 7 J X.X.X.X.X.q                               ",
"                              w X.X.X.X.X.J 7 0 X.X.X.& & @.X.X.X.w   @.X.X.X.X.@.& & X.X.X.O w L X.X.X.X.X.q                               ",
"                              w X.X.X.X.X.J 7 8 X.X.B o = X.X.X.X.w   @.X.X.X.X.@.& & X.X.J   V X.X.X.X.X.X.q                               ",
"                              q X.X.X.X.I L 7 7 A V O = +.X.X.X.X.w   $.@.X.X.X.@.& O D V   7 F X.X.X.X.X.X.q                               ",
"                              w X.X.X.X.X.L 7       8 H X.X.X.X.X.w   @...X.X.X.@.&       N D X.X.X.X.X.X.X.q                               ",
"                              w X.X.X.X.X.H 7 8 H = * H X.X.X.X.X.w   $.X.X.X.X.@.& O H H ..X.X.X.X.X.X.X.X.q                               ",
"                              q X.X.X.X.X.L 7 8 X.D   F X.X.X.X.X.w   $.X.X.X.X.@.* & X...X.X.X.X.X.X.X.X.X.q                               ",
"                              w X.X.X.X.X.L 7 8 X.F = 7 J B H X.X.w   X.A F X.X.@.& & G C X.X.X.X.X.X.X.X.X.q                               ",
"                              w X.X.X.X.X.U w Z X.X.w O H O A X.X.C X P q A X.X.X.& w V 7 X.X.X.X.X.X.X.X.X.q                               ",
"                              q X.X.X.X.X.X.X.X.X.X.@.+.X.X.X.X.X.X.X.X.X.X.X.X.X.X.X.X.X.X.X.X.X.X.X.X.X.X.q                               ",
"                              q X.X.X.X.X.X.X.X.X.X.X.X.X.X.X.X.X.X.X.X.X.X.X.X.X.X.X.X.X.@.X.X.X.X.X.X.X.X.q                               ",
"                              w X.X.X.X.X.X.X.X.X.X.X.X.X.X.X.X.X.X.X.X.X.X.X.X.X.X.X.X.X.X.X.X.X.X.X.X.X.G =                               ",
"                              q X.X.X.X.X.X.X.X.X.X.X.X.X.X.X.X.X.X.X.X.X.X.X.X.X.X.X.X.X.X.X.X.X.X.X.I X.O                                 ",
"                              w X.X.X.X.X.X.X.X.X.X.X.X.X.X.X.X.X.X.X.X.X.X.X.X.X.X.X.X.X.X.X.X.X.X.X.L                                     ",
"                              w X.X.X.X.X.X.X.X.X.X.X.X.X.X.X.X.X.X.X.X.X.X.X.X.X.X.X.X.X.X.X.X.X.X.X.8                                     ",
"                              w X.X.X.X.X.X.X.X.X.X.X.X.X.X.X.X.X.X.X.X.X.X.X.X.X.X.X.X.X.X.X.X.X.X.X.N                                     ",
"                              w X.X.X.X.X.X.X.X.X.X.X.X.X.X.X.X.X.X.X.X.X.X.X.X.X.X.X.X.X.X.X.X.X.X.X.X.X.Z X X                             ",
"                              w X.X.X.X.X.X.X.X.X.X.X.X.X.X.X.X.X.X.X.X.X.X.X.X.X.X.X.X.X.X.X.X.X.X.X.X.X.X.w                               ",
"                              q X.X.X.X.X.X.X.X.X.X.X.X.X.X.X.X.X.X.X.X.X.X.X.X.X.X.X.X.X.X.X.X.X.X.X.X.X.X.w                               ",
"                              w X.X.X.X.X.X.X.X.X.X.X.X.X.X.X.X.X.X.X.X.X.X.X.X.X.X.X.X.X.X.X.X.X.X.X.X.X.X.q                               ",
"                              w X.X.X.X.X.X.X.X.X.X.X.X.X.X.X.X.X.X.X.X.X.X.X.X.X.X.X.X.X.X.X.X.X.X.X.X.X.X.q                               ",
"                              w X.X.X.X.X.X.X.X.X.X.X.X.X.X.X.X.X.X.X.X.X.X.X.X.X.X.X.X.X.X.X.X.X.X.X.X.X.X.q o                             ",
"                              w X.X.X.X.X.X.X.X.X.X.X.X.X.X.X.X.X.X.X.X.X.X.X.X.X.X.X.X.X.X.X.X.X.X.X.X.X...q                               ",
"                              w ..X.X.X.X.X.X.X.X.X.X.X.X.X.X.X.X.X.X.X.X.X.X.X.X.X.X.X.X.X.X.X.X.X.X.X.X.X.w                               ",
"                      6 $     w ....X.X.X.X.X.X.X.X.X.X.X.X.X.X.X.X.X.X.X.X.X.X.X.X.X.X.X.X.X.X.X.X.X.X.X.L 7                               ",
"                      ' Q f   7 G ..X.X.X.X.X.X.X.X.X.X.X.X.X.X.X.X.X.X.X.X.X.X.X.X.X.X.X.X.X.X.X.D A X.X.8   a 4                           ",
"                      b } } Y   0 X.X.X.X.X.X.X.X.X.X.X.X.X.X.X.X.X.X.X.X.X.X.X.X.X.X.X.X.X.X.X.A X = G & o k { i                           ",
"                      b  . . .v X D ..X.X.X.X.X.X.X.X.X.X.X.X.X.X.X.X.X.X.X.X.X.X.X.X.X.X.X.I G & X   =   u  . .k                           ",
"        o : X         !  . . .' :   G X.X.X.X.X.X.X.X.X.X.X.X.X.X.X.X.X.X.X.X.X.X.X.X.X.X.X.L 0   m $   O |  . .) O , i i i i u #           ",
"        . a n b #      . . . . .M   0 X.X.X.X.X.X.X.X.X.X.X.+.X.X.X.X.X.X.X.X.X.X.X.X.X.X.X.D O g } k X R  . . .{ E `  . . . .3 O           ",
"            _  .[ > 6  . . . . .}   7 L X.X.X.X.X.X.X.X.@.@.$.$.@.@.@.$.$.$.$.@.X.X.X.X.X.X.D   /  . . . . . . . . . . . ./ @               ",
"              ^  . . . . .( ! T n p X q B 0 = O                       o               X     X   4 k m Y Y n Y ~ [  . . .( 3                 ",
"              3 ] M i i i 3 * X         O - - 1 e e e e e e e e e e e e e e e e e e e e e e 2 ; * +         X % 5 i i i s                   ",
"              o @ o   o   & 1 y l h l l l z z x x x x x x x x x x x x x x x x x x x x x x x x z z l l h l h t < &       X                   ",
"            . + + 1 c x x x x x x x x x x x x x x x x x x x x x x x x x x x x x x x x x x x x x x x x x x x x x x x x l < + + o             ",
"        ; 1 y x x x x x x x x x x x x x x x x x x x x x x x x x x x x x x x x x x x x x x x x x x x x x x x x x x x x x x x x y 1 ;         ",
"    1 r z x x x x x x x x x x x x x x x x x x x x x x x x x x x x x x x x x x x x x x x x x x x x x x x x x x x x x x x x x x x x z r 1     ",
"                                    X                       X                       X                       X                               ",
"                                                                                                                                            ",
"                                                                                                                                            ",
"                                                                                                                                            "
};
